<?xml version="1.0" standalone="no"?>
<!DOCTYPE svg PUBLIC "-//W3C//DTD SVG 20010904//EN"
 "http://www.w3.org/TR/2001/REC-SVG-20010904/DTD/svg10.dtd">
<svg version="1.0" xmlns="http://www.w3.org/2000/svg"
 width="2048.000000pt" height="2048.000000pt" viewBox="0 0 2048.000000 2048.000000"
 preserveAspectRatio="xMidYMid meet">
<metadata>
Created by potrace 1.14, written by Peter Selinger 2001-2017
</metadata>
<g transform="translate(0.000000,2048.000000) scale(0.100000,-0.100000)"
fill="#000000" stroke="none">
<path d="M9896 20473 c-3 -3 -60 -7 -128 -9 -246 -6 -308 -9 -308 -14 0 -5
-56 -8 -200 -13 -36 -1 -68 -6 -71 -10 -4 -5 -34 -9 -68 -10 -33 -1 -61 -4
-61 -7 0 -3 -24 -6 -52 -8 -29 -1 -69 -4 -88 -7 -19 -3 -60 -8 -90 -11 -30 -4
-57 -9 -60 -13 -5 -6 -25 -8 -122 -13 -21 -1 -38 -5 -38 -8 0 -3 -16 -7 -35
-8 -19 -2 -57 -7 -83 -13 -26 -5 -60 -11 -77 -13 -16 -2 -30 -5 -30 -6 0 -1
-13 -4 -30 -6 -38 -4 -86 -14 -105 -21 -8 -3 -25 -5 -37 -4 -13 1 -23 -2 -23
-7 0 -5 -12 -8 -27 -6 -15 1 -33 -2 -39 -7 -7 -5 -16 -9 -20 -8 -5 1 -11 0
-14 -1 -3 -1 -16 -3 -30 -4 -14 -1 -29 -4 -35 -8 -14 -8 -87 -22 -102 -19 -7
1 -13 -2 -13 -8 0 -5 -11 -8 -25 -6 -14 1 -25 -2 -25 -8 0 -6 -3 -8 -6 -5 -3
4 -20 2 -37 -3 -18 -6 -43 -12 -57 -14 -14 -2 -40 -9 -58 -14 -18 -5 -36 -11
-40 -12 -4 -1 -11 -3 -17 -4 -5 -2 -30 -9 -55 -16 -25 -7 -51 -12 -57 -10 -7
1 -13 -3 -13 -8 0 -5 -9 -8 -21 -6 -11 2 -28 0 -37 -5 -25 -13 -56 -23 -65
-22 -4 1 -23 -4 -42 -13 -20 -8 -36 -14 -38 -14 -1 0 -9 -2 -17 -4 -36 -11
-105 -31 -110 -32 -3 0 -11 -4 -18 -9 -7 -4 -16 -5 -19 -2 -3 3 -12 1 -19 -5
-7 -6 -28 -13 -46 -16 -18 -3 -36 -9 -39 -15 -3 -5 -9 -9 -13 -9 -3 1 -7 1 -8
0 -2 0 -11 -2 -20 -4 -33 -6 -93 -28 -105 -38 -7 -5 -13 -6 -13 -2 0 4 -7 2
-15 -5 -8 -6 -19 -9 -25 -5 -5 3 -10 2 -10 -4 0 -5 -18 -12 -40 -16 -22 -4
-40 -11 -40 -16 0 -5 -3 -8 -7 -7 -16 3 -63 -15 -63 -24 0 -5 -4 -7 -10 -3 -5
3 -25 -1 -45 -9 -19 -8 -35 -12 -35 -8 0 4 -4 3 -8 -3 -10 -15 -113 -55 -123
-49 -5 3 -9 1 -9 -5 0 -5 -14 -12 -30 -16 -16 -4 -30 -11 -30 -15 0 -5 -7 -7
-15 -4 -8 4 -15 1 -15 -5 0 -6 -7 -8 -15 -5 -8 4 -15 1 -15 -5 0 -6 -9 -11
-20 -11 -11 0 -20 -4 -20 -8 0 -5 -6 -9 -12 -9 -7 0 -40 -12 -73 -28 -33 -15
-66 -28 -72 -28 -7 0 -13 -3 -13 -7 0 -3 -17 -12 -37 -19 -21 -8 -73 -31 -115
-52 -43 -21 -78 -35 -78 -32 0 3 -7 0 -15 -7 -8 -7 -15 -9 -15 -4 0 5 -5 2
-10 -6 -5 -8 -13 -15 -17 -16 -28 -4 -91 -39 -86 -47 3 -6 1 -7 -5 -3 -6 4
-41 -9 -77 -29 -36 -20 -65 -33 -65 -30 0 4 -7 -1 -16 -9 -8 -9 -20 -14 -25
-11 -5 4 -9 2 -9 -4 0 -6 -11 -13 -25 -17 -14 -3 -25 -10 -25 -15 0 -5 -3 -8
-7 -7 -11 2 -86 -35 -95 -47 -4 -5 -8 -6 -8 -2 0 5 -7 1 -16 -7 -8 -9 -22 -16
-30 -16 -8 0 -14 -5 -14 -11 0 -5 -4 -7 -10 -4 -5 3 -10 2 -10 -2 0 -5 -16
-15 -35 -22 -19 -7 -35 -17 -35 -22 0 -5 -3 -8 -7 -7 -9 2 -75 -31 -83 -42 -3
-3 -26 -17 -52 -29 -27 -13 -48 -28 -48 -34 0 -5 -3 -7 -6 -4 -4 4 -19 -2 -34
-13 -16 -11 -33 -20 -39 -20 -6 0 -11 -4 -11 -8 0 -9 -71 -47 -82 -44 -5 1 -8
-2 -8 -6 0 -5 -16 -17 -35 -28 -19 -10 -35 -22 -35 -26 0 -5 -5 -8 -11 -8 -6
0 -29 -13 -52 -28 -23 -16 -50 -31 -59 -35 -10 -4 -18 -11 -18 -17 0 -6 -5 -8
-10 -5 -6 3 -13 -1 -16 -9 -3 -9 -14 -16 -24 -16 -10 0 -21 -7 -24 -16 -4 -9
-9 -14 -12 -11 -4 3 -12 1 -20 -6 -27 -24 -40 -33 -71 -52 -18 -11 -33 -23
-33 -28 0 -4 -4 -5 -10 -2 -5 3 -10 2 -10 -2 0 -5 -15 -17 -32 -28 -18 -10
-37 -23 -43 -27 -5 -4 -25 -19 -42 -34 -18 -14 -33 -22 -33 -17 0 4 -5 0 -11
-9 -5 -10 -17 -18 -24 -18 -8 0 -15 -4 -15 -8 0 -5 -23 -24 -52 -42 -28 -18
-58 -42 -67 -53 -9 -10 -29 -26 -46 -34 -29 -15 -36 -21 -82 -63 -13 -11 -27
-20 -31 -20 -5 0 -21 -13 -37 -30 -16 -16 -33 -30 -37 -30 -5 0 -20 -12 -33
-26 -13 -14 -27 -26 -32 -27 -4 -1 -17 -9 -28 -19 -57 -51 -174 -148 -178
-148 -5 0 -62 -50 -134 -117 -24 -24 -48 -43 -52 -43 -3 0 -27 -21 -52 -47
-51 -53 -135 -126 -150 -131 -5 -2 -9 -9 -10 -15 0 -7 -27 -34 -59 -62 -32
-27 -59 -56 -59 -62 -1 -7 -5 -13 -11 -13 -13 0 -136 -123 -132 -132 1 -5 -3
-8 -9 -8 -12 0 -24 -12 -57 -54 -12 -16 -22 -26 -22 -23 0 4 -59 -56 -130
-132 -72 -76 -130 -142 -130 -145 0 -3 -21 -29 -47 -56 -91 -95 -132 -140
-127 -140 3 0 -7 -12 -21 -27 -14 -15 -25 -31 -25 -36 0 -4 -4 -6 -9 -2 -5 3
-12 -3 -16 -14 -3 -10 -18 -32 -33 -48 -15 -16 -38 -44 -52 -63 -14 -18 -39
-49 -57 -69 -17 -19 -30 -39 -27 -43 3 -4 1 -8 -4 -8 -5 0 -29 -26 -53 -57
-23 -32 -46 -59 -51 -61 -4 -2 -8 -10 -8 -17 0 -8 -6 -18 -13 -22 -6 -4 -25
-26 -40 -49 -15 -22 -36 -50 -48 -62 -11 -12 -17 -22 -13 -22 3 0 -8 -14 -25
-32 -17 -17 -31 -37 -31 -43 0 -6 -11 -22 -25 -35 -13 -12 -22 -26 -20 -30 3
-5 -2 -11 -10 -14 -8 -3 -14 -9 -13 -14 2 -4 -7 -21 -20 -37 -59 -77 -91 -125
-84 -125 4 0 2 -4 -4 -8 -6 -4 -34 -43 -62 -87 -28 -44 -55 -84 -59 -90 -5 -5
-20 -30 -33 -55 -14 -25 -31 -49 -37 -53 -7 -4 -13 -14 -13 -22 0 -7 -7 -21
-16 -29 -8 -9 -12 -16 -7 -16 4 0 3 -4 -3 -8 -13 -8 -42 -55 -71 -112 -9 -19
-20 -37 -23 -40 -3 -3 -24 -36 -45 -75 -21 -38 -42 -71 -47 -73 -4 -2 -8 -12
-8 -23 0 -10 -4 -19 -8 -19 -5 0 -17 -19 -28 -42 -10 -24 -21 -45 -25 -48 -3
-3 -18 -31 -33 -62 -15 -32 -31 -60 -37 -63 -5 -4 -9 -15 -9 -25 0 -10 -3 -20
-7 -22 -5 -1 -28 -46 -53 -98 -25 -52 -47 -97 -50 -100 -3 -3 -14 -25 -25 -50
-11 -25 -22 -47 -25 -50 -3 -3 -23 -45 -45 -95 -22 -49 -43 -92 -47 -93 -5 -2
-6 -8 -2 -13 3 -5 0 -9 -7 -9 -7 0 -10 -3 -6 -6 3 -4 0 -19 -9 -35 -8 -16 -15
-32 -15 -36 -1 -5 -6 -17 -12 -28 -6 -11 -10 -23 -9 -27 1 -5 -2 -8 -8 -8 -5
0 -10 -9 -10 -20 0 -11 -4 -20 -10 -20 -5 0 -7 -6 -4 -14 3 -8 0 -17 -5 -21
-6 -3 -9 -11 -6 -16 4 -5 2 -9 -2 -9 -5 0 -18 -24 -28 -52 -10 -29 -25 -64
-32 -78 -7 -14 -13 -31 -13 -37 0 -7 -4 -13 -10 -13 -5 0 -7 -6 -4 -14 3 -8 0
-17 -5 -21 -6 -3 -9 -11 -6 -16 4 -5 1 -9 -4 -9 -6 0 -11 -6 -11 -14 0 -8 -5
-27 -12 -43 -6 -15 -11 -31 -10 -35 1 -5 -3 -8 -9 -8 -5 0 -8 -4 -5 -8 2 -4
-1 -21 -8 -37 -36 -84 -55 -139 -50 -146 3 -5 0 -9 -5 -9 -6 0 -11 -8 -11 -18
0 -10 -3 -22 -7 -26 -4 -3 -8 -13 -10 -21 -5 -25 -9 -39 -21 -68 -7 -16 -12
-34 -12 -41 0 -7 -3 -16 -7 -20 -4 -3 -8 -14 -10 -24 -5 -23 -8 -32 -21 -65
-7 -16 -12 -35 -12 -43 0 -8 -5 -14 -11 -14 -5 0 -7 -4 -4 -10 3 -5 3 -16 -2
-22 -4 -7 -8 -17 -10 -23 -7 -37 -35 -130 -41 -139 -3 -6 -7 -18 -7 -26 0 -8
-4 -21 -8 -27 -5 -7 -6 -13 -2 -13 3 0 0 -10 -7 -22 -7 -13 -11 -31 -9 -40 1
-10 -2 -18 -6 -18 -5 0 -9 -8 -10 -17 0 -10 -3 -27 -7 -38 -18 -67 -37 -142
-38 -155 0 -8 -4 -19 -8 -25 -6 -9 -15 -42 -36 -135 -3 -14 -7 -34 -8 -45 -1
-11 -5 -26 -9 -32 -5 -7 -6 -17 -2 -22 3 -5 1 -12 -5 -16 -5 -3 -10 -19 -10
-36 0 -16 -4 -29 -9 -29 -4 0 -6 -11 -3 -25 2 -14 0 -25 -6 -25 -6 0 -8 -13
-6 -30 3 -16 1 -30 -4 -30 -5 0 -8 -10 -7 -22 1 -13 -1 -28 -6 -33 -4 -6 -8
-20 -8 -30 0 -25 -11 -86 -18 -105 -3 -8 -7 -26 -8 -40 -1 -14 -4 -27 -5 -30
-2 -3 -4 -16 -5 -30 -1 -14 -5 -32 -8 -40 -10 -26 -35 -194 -39 -265 -2 -22
-6 -42 -9 -45 -5 -4 -15 -75 -35 -245 -3 -27 -6 -78 -7 -112 -1 -33 -5 -59 -9
-57 -3 2 -9 -28 -11 -68 -26 -359 -27 -384 -34 -563 -10 -287 -6 -965 6 -965
4 0 8 -42 9 -92 3 -136 16 -317 29 -388 5 -32 8 -69 15 -177 1 -24 6 -43 9
-43 4 0 6 -23 6 -50 -1 -28 1 -50 6 -50 4 0 7 -19 7 -43 0 -24 3 -47 7 -51 4
-4 6 -22 4 -41 -1 -19 1 -40 6 -47 8 -14 13 -45 16 -115 1 -24 5 -43 8 -43 4
0 9 -19 13 -42 3 -24 8 -59 11 -78 3 -19 7 -47 8 -62 1 -16 4 -28 7 -28 3 0 7
-15 8 -33 2 -17 7 -33 11 -35 5 -2 6 -16 1 -32 -6 -21 -5 -30 5 -34 8 -3 12
-14 10 -27 -3 -12 -1 -27 3 -33 3 -6 8 -20 9 -31 6 -49 12 -75 19 -86 4 -7 9
-22 10 -33 1 -12 5 -34 8 -51 4 -16 7 -39 9 -50 1 -11 5 -22 8 -25 5 -4 23
-79 33 -135 2 -11 5 -21 6 -22 3 -4 4 -8 20 -80 8 -35 17 -63 20 -63 3 0 7
-11 8 -25 5 -55 7 -65 13 -65 7 0 23 -59 20 -77 -1 -7 2 -13 6 -13 5 0 9 -8
10 -17 1 -19 2 -23 22 -93 15 -49 17 -60 21 -75 1 -5 6 -16 12 -23 6 -7 8 -15
5 -19 -4 -3 -3 -11 2 -17 10 -12 36 -97 33 -108 -1 -5 3 -8 9 -8 6 0 9 -9 6
-20 -3 -11 -1 -20 4 -20 5 0 9 -8 9 -17 0 -10 7 -31 15 -47 8 -15 12 -32 9
-37 -3 -5 0 -9 6 -9 6 0 10 -6 9 -12 -2 -11 6 -36 28 -88 3 -8 7 -18 8 -22 2
-5 4 -11 5 -15 2 -5 4 -12 5 -18 0 -5 9 -25 18 -42 10 -18 17 -34 17 -35 -3
-10 44 -133 53 -139 5 -3 8 -9 8 -13 -2 -17 12 -65 18 -62 3 2 7 -7 8 -21 0
-14 7 -29 13 -33 7 -4 9 -13 6 -19 -4 -6 -2 -11 3 -11 6 0 11 -4 11 -9 0 -5 5
-22 12 -38 6 -15 11 -31 10 -35 -1 -5 3 -8 9 -8 5 0 7 -5 3 -11 -3 -6 -3 -14
2 -18 9 -6 29 -46 33 -66 2 -5 7 -16 13 -23 6 -6 8 -12 4 -12 -4 0 7 -25 24
-55 17 -30 28 -55 25 -55 -3 0 10 -30 29 -67 47 -92 106 -222 106 -234 0 -5 5
-9 11 -9 5 0 8 -4 5 -9 -4 -5 -3 -11 1 -13 10 -4 78 -141 75 -151 -1 -4 3 -7
9 -7 5 0 7 -5 4 -10 -3 -6 -3 -10 2 -10 4 0 13 -10 19 -23 21 -43 90 -173 117
-219 15 -27 24 -48 20 -48 -4 0 0 -6 9 -13 8 -6 28 -37 44 -67 16 -30 32 -57
37 -58 4 -2 5 -7 2 -12 -2 -4 6 -19 20 -34 13 -14 22 -26 20 -26 -3 0 12 -26
32 -57 20 -32 36 -63 36 -70 0 -7 6 -14 14 -17 7 -3 13 -12 13 -20 0 -7 7 -16
15 -20 8 -3 15 -11 15 -19 0 -7 12 -29 26 -48 14 -19 32 -49 41 -66 8 -18 19
-33 24 -33 5 0 9 -7 9 -15 0 -9 7 -18 15 -21 8 -4 13 -10 10 -14 -3 -4 2 -13
10 -20 8 -7 15 -19 15 -27 0 -7 7 -16 15 -19 8 -4 15 -12 15 -20 0 -8 5 -14
10 -14 6 0 10 -6 10 -14 0 -7 7 -19 15 -26 9 -7 13 -15 10 -18 -3 -3 4 -11 15
-19 11 -8 20 -19 20 -24 0 -6 6 -16 13 -23 6 -8 19 -24 27 -36 8 -12 21 -28
27 -36 7 -7 13 -15 13 -18 0 -3 15 -26 33 -50 17 -24 41 -56 52 -72 11 -16 30
-39 43 -52 13 -13 21 -26 18 -29 -3 -3 5 -15 17 -28 32 -32 57 -64 57 -71 0
-3 12 -18 28 -33 15 -14 28 -31 29 -38 2 -6 21 -31 43 -55 22 -24 40 -48 40
-54 0 -6 14 -21 30 -34 17 -13 30 -27 30 -33 0 -5 13 -23 30 -39 16 -15 30
-32 30 -36 0 -4 18 -25 40 -46 22 -21 40 -42 40 -46 0 -5 17 -27 38 -48 20
-21 62 -67 92 -102 30 -35 84 -94 120 -131 36 -37 83 -89 105 -115 22 -26 51
-57 64 -68 36 -32 50 -46 58 -59 5 -7 21 -23 37 -35 16 -12 27 -22 24 -22 -2
0 30 -35 71 -78 42 -42 79 -76 84 -74 4 2 7 -4 7 -13 0 -9 5 -15 11 -13 6 2
50 -35 98 -82 48 -47 114 -107 145 -135 32 -27 78 -69 102 -93 25 -23 48 -42
52 -42 4 0 25 -18 47 -40 22 -21 43 -39 47 -40 4 0 18 -10 31 -23 39 -35 98
-84 150 -123 26 -20 47 -41 47 -45 0 -5 6 -9 14 -9 8 0 24 -11 37 -25 13 -13
28 -25 34 -25 5 0 20 -12 32 -27 13 -14 23 -23 23 -19 0 4 34 -20 75 -54 41
-34 75 -58 75 -53 0 4 4 3 8 -2 10 -14 122 -97 122 -90 0 3 8 -3 18 -12 21
-21 49 -42 117 -85 28 -18 53 -37 57 -43 5 -6 8 -6 8 0 0 6 3 6 8 0 4 -6 41
-33 82 -60 41 -27 77 -51 80 -55 9 -9 64 -41 83 -47 9 -3 17 -9 17 -14 0 -5 4
-9 10 -9 5 0 19 -8 30 -18 11 -9 24 -17 28 -17 4 0 21 -10 39 -23 17 -12 36
-22 42 -22 6 0 11 -4 11 -10 0 -5 6 -10 14 -10 7 0 19 -7 26 -15 7 -8 16 -12
21 -9 5 3 9 1 9 -4 0 -5 11 -14 24 -20 14 -6 42 -22 63 -35 21 -13 42 -24 47
-25 5 0 12 -4 15 -9 6 -8 28 -20 116 -67 22 -12 43 -25 46 -30 4 -5 12 -5 18
-2 6 4 11 2 11 -4 0 -10 61 -42 76 -39 4 0 10 -3 13 -8 3 -5 37 -25 76 -44 38
-19 76 -40 83 -46 12 -12 27 -15 49 -12 3 0 10 -6 15 -15 5 -9 16 -16 23 -16
8 0 15 -5 15 -11 0 -6 6 -9 13 -6 6 2 28 -6 48 -19 20 -13 40 -20 43 -17 3 4
6 1 6 -5 0 -6 7 -9 17 -5 11 4 14 3 9 -5 -4 -7 -2 -12 5 -12 7 0 42 -14 78
-31 66 -31 118 -54 176 -79 17 -8 33 -13 38 -12 4 1 7 -3 7 -8 0 -6 7 -10 15
-10 8 0 15 -5 15 -11 0 -5 4 -7 10 -4 5 3 27 -2 47 -12 21 -10 40 -18 43 -19
3 0 23 -8 45 -18 22 -9 49 -21 60 -25 11 -5 40 -17 65 -27 24 -11 48 -18 52
-17 5 2 8 -2 8 -8 0 -5 3 -8 8 -6 4 3 25 -3 46 -14 22 -10 50 -19 63 -19 13 0
23 -4 23 -10 0 -5 4 -10 9 -10 5 0 22 -5 38 -12 15 -6 33 -12 38 -14 13 -4
136 -45 155 -52 8 -3 17 -6 20 -7 5 -2 29 -11 75 -28 17 -7 34 -11 39 -9 4 1
14 -2 20 -7 7 -6 22 -12 34 -14 12 -2 25 -6 28 -10 4 -4 18 -7 30 -7 13 0 26
-5 29 -10 4 -6 11 -8 16 -5 5 4 9 1 9 -5 0 -7 7 -10 15 -7 8 4 17 2 20 -3 4
-6 15 -10 25 -10 10 0 31 -5 47 -11 33 -14 60 -20 90 -21 13 0 21 -4 18 -8 -2
-4 19 -13 48 -19 63 -13 98 -23 127 -34 20 -7 100 -27 125 -31 11 -2 20 -4 20
-5 0 -4 37 -11 68 -15 15 -2 30 -6 34 -10 3 -3 17 -6 30 -6 13 0 23 -4 23 -8
0 -4 10 -9 23 -10 65 -6 136 -22 143 -33 2 -4 11 -6 19 -2 8 3 23 2 32 -2 10
-5 30 -8 46 -8 15 0 27 -4 27 -9 0 -4 11 -6 25 -4 14 3 25 0 25 -5 0 -5 15 -9
34 -9 19 0 37 -4 41 -10 3 -5 12 -7 20 -3 8 3 23 2 33 -2 9 -5 28 -9 42 -9 14
-1 30 -5 36 -8 5 -4 19 -5 30 -4 10 2 24 0 29 -4 6 -4 33 -10 60 -13 28 -4 61
-9 75 -12 14 -3 43 -8 65 -11 96 -13 113 -15 175 -25 36 -5 79 -10 97 -9 17 0
34 -3 37 -8 2 -4 30 -7 60 -7 31 1 56 -2 56 -6 0 -3 27 -6 60 -5 33 0 60 -2
60 -6 0 -5 32 -8 70 -8 39 0 70 -3 70 -7 0 -5 39 -9 88 -10 210 -6 278 -9 287
-15 13 -7 967 -7 980 1 6 3 51 7 100 8 120 3 243 11 340 23 104 12 187 19 253
22 28 1 52 6 52 11 0 5 23 7 50 5 28 -1 51 0 53 4 2 6 86 18 145 20 17 1 32 5
32 9 0 4 18 6 40 4 22 -2 40 0 40 4 0 4 16 8 35 9 32 2 60 7 165 28 14 3 39 6
57 8 18 1 35 5 39 9 4 4 19 7 34 7 15 0 30 3 33 6 3 4 21 8 39 9 18 2 44 6 58
9 67 16 87 20 117 20 17 1 29 4 27 7 -4 7 44 19 89 21 15 1 27 5 27 9 0 4 8 6
18 5 9 -2 24 1 32 5 14 7 85 25 135 33 11 2 20 5 20 6 0 1 9 4 20 6 41 7 120
28 125 33 5 6 13 8 62 15 10 1 21 5 24 9 4 4 16 7 26 7 10 0 18 3 18 8 0 4 10
8 23 8 27 2 49 8 62 15 6 4 18 5 28 4 9 -2 17 0 17 5 0 5 18 11 40 15 22 4 42
11 46 16 3 5 10 7 15 3 5 -3 16 0 24 6 8 7 15 10 15 7 0 -3 24 4 53 15 28 10
57 21 62 22 6 2 17 6 25 9 8 3 33 11 55 17 22 6 47 14 55 17 8 4 17 7 20 8 51
15 124 41 200 71 52 20 102 37 110 38 8 1 26 9 40 16 14 8 29 13 34 12 5 -2
12 2 16 8 3 6 16 12 28 15 12 2 41 13 66 23 24 11 47 18 50 14 3 -3 6 0 6 6 0
7 7 12 15 12 8 0 32 9 52 20 20 10 40 17 45 14 4 -3 8 -1 8 4 0 9 37 25 52 23
4 0 28 10 52 24 25 14 52 25 60 25 9 0 16 5 16 12 0 6 3 9 6 5 3 -3 28 6 56
20 27 14 55 26 62 27 19 3 81 38 88 50 4 6 8 8 8 4 0 -3 49 18 110 48 60 30
113 55 117 56 5 0 24 11 43 22 19 12 67 37 105 55 39 19 82 43 98 53 15 11 27
16 27 11 0 -4 4 -3 8 3 7 11 23 21 118 69 21 11 44 26 50 34 6 8 16 11 22 7 7
-4 12 -3 12 3 0 5 9 13 20 16 11 3 26 12 32 18 17 16 88 57 111 64 9 3 17 9
17 14 0 5 7 9 15 9 8 0 15 3 15 8 0 4 23 18 50 31 28 14 50 28 50 32 0 4 14
12 30 19 17 7 30 17 30 22 0 5 5 6 10 3 6 -3 10 -2 10 3 0 5 14 15 30 22 17 7
30 17 30 22 0 5 5 6 10 3 6 -3 13 1 16 9 3 9 12 16 20 16 8 0 14 4 14 9 0 5
10 13 22 17 12 3 28 12 35 18 33 29 41 34 47 29 3 -3 8 2 12 11 3 9 10 16 16
16 5 0 24 11 42 25 18 14 37 25 42 25 5 0 16 9 24 20 8 11 19 20 25 20 6 0 20
8 31 17 10 10 37 30 60 46 22 15 50 36 62 47 12 11 24 19 26 18 2 -2 17 8 33
23 16 14 56 45 91 69 34 24 62 48 62 52 0 4 4 8 10 8 5 0 18 7 27 15 33 26
158 126 192 153 19 15 49 42 68 60 18 17 36 32 39 32 3 0 23 17 45 37 22 21
51 44 64 53 13 8 33 28 45 43 12 15 25 27 30 27 5 0 37 26 71 58 34 31 100 93
147 137 47 44 117 110 154 146 37 36 68 65 68 64 0 -1 29 28 65 63 36 36 65
67 65 68 0 3 3 6 133 142 48 50 86 93 85 94 -2 2 23 29 55 60 31 31 57 61 57
65 0 5 15 22 33 39 17 17 57 61 87 98 30 37 66 80 80 96 55 62 74 85 75 93 0
5 7 14 15 20 9 7 26 27 39 45 13 18 37 48 53 65 16 18 36 44 44 60 8 15 19 27
24 27 5 0 11 8 14 18 4 9 22 35 41 57 19 22 35 44 35 50 0 6 9 16 20 23 11 7
20 17 20 23 0 10 10 24 43 60 9 10 17 23 17 29 0 5 10 18 22 30 12 11 19 20
15 20 -4 0 0 8 9 18 30 32 124 170 124 181 0 6 5 11 10 11 6 0 15 11 20 25 5
14 14 25 20 25 6 0 9 4 5 10 -3 5 2 18 12 29 34 37 42 49 36 55 -3 3 2 8 11
12 9 3 16 11 16 16 0 5 9 23 21 39 11 16 17 29 12 29 -4 0 0 5 10 11 9 5 17
16 17 24 0 7 4 15 8 17 5 2 26 34 48 71 21 38 47 81 56 95 10 15 23 38 30 52
7 14 20 30 28 37 8 7 11 13 6 13 -4 0 3 15 17 34 15 18 23 36 20 40 -4 3 -2 6
3 6 6 0 16 16 23 35 7 19 17 35 22 35 6 0 7 4 4 10 -3 5 -2 10 2 10 5 0 15 16
22 35 7 19 17 35 22 35 5 0 8 3 7 7 -3 10 32 76 44 84 5 3 9 8 8 10 -3 7 24
64 33 70 5 3 8 9 8 13 -1 7 62 139 70 146 6 6 16 31 17 44 0 5 4 12 9 15 11 8
37 63 35 74 -1 4 3 7 9 7 5 0 8 4 5 9 -3 5 1 14 9 21 8 7 12 16 9 21 -3 5 1
12 10 15 8 3 12 12 9 20 -3 8 0 14 7 14 6 0 8 5 5 10 -3 6 1 13 10 16 11 4 12
10 6 18 -7 8 -4 16 8 26 11 7 17 19 14 27 -3 7 0 13 7 13 6 0 9 4 6 9 -3 5 1
14 9 21 8 7 15 19 15 27 0 7 7 30 17 51 9 20 17 39 18 42 1 3 10 23 20 45 10
22 19 42 20 45 0 3 6 14 12 25 6 11 11 22 11 25 1 9 23 65 43 106 10 22 19 48
19 57 0 9 4 17 10 17 5 0 7 7 4 15 -4 8 -1 15 6 15 7 0 10 7 6 15 -3 8 -1 15
4 15 6 0 10 6 10 14 0 8 9 33 19 57 11 24 17 47 15 51 -3 4 0 8 5 8 6 0 11 6
11 14 0 8 5 27 12 43 6 15 12 31 13 36 2 4 4 9 5 12 1 3 3 8 5 13 1 4 7 20 13
35 7 16 12 34 12 41 0 7 3 16 7 20 7 7 14 31 16 59 1 9 4 17 8 17 3 0 18 42
34 93 15 50 32 98 38 105 5 6 7 12 4 12 -3 0 2 21 10 47 19 60 83 272 89 295
2 10 6 26 9 35 2 10 9 38 15 63 6 25 13 52 17 60 3 8 7 24 9 35 6 32 12 60 14
60 1 0 4 13 6 29 2 16 7 32 11 35 7 6 11 25 15 79 1 12 5 22 8 22 4 0 7 6 7
13 1 11 16 83 28 137 3 14 8 36 11 50 2 14 7 36 9 50 3 14 10 54 17 90 7 36
14 67 18 70 3 3 6 16 6 30 2 25 4 43 25 155 6 33 13 71 14 85 2 14 4 25 5 25
1 0 4 16 5 35 2 19 6 51 9 70 4 19 8 51 10 70 3 19 8 53 12 75 3 22 8 54 9 70
2 17 4 30 5 30 2 0 11 105 13 170 1 28 5 52 9 55 4 3 8 38 9 78 1 40 5 74 8
76 3 2 6 36 5 75 -1 39 2 71 5 71 4 0 7 39 6 86 0 47 3 88 8 91 4 2 3 11 -4
19 -6 8 -7 14 -2 14 18 0 22 1033 4 1065 -3 6 -7 42 -7 80 -3 119 -27 410 -34
410 -1 0 -3 32 -6 70 -8 116 -9 130 -15 140 -4 6 -6 28 -6 50 0 22 -5 49 -10
60 -6 11 -7 29 -3 40 7 21 2 55 -9 55 -4 0 -6 18 -4 40 1 22 -1 40 -5 40 -4 0
-8 15 -9 33 -1 17 -4 48 -8 67 -3 19 -8 55 -11 80 -3 25 -8 52 -11 60 -3 8 -7
29 -9 45 -1 17 -7 48 -13 70 -16 62 -35 179 -33 193 2 6 -1 12 -6 12 -5 0 -8
10 -8 23 1 12 -2 28 -7 34 -5 7 -7 22 -4 33 3 11 1 23 -4 26 -5 3 -9 18 -9 35
0 16 -4 29 -8 29 -4 0 -8 8 -8 18 -1 21 -9 59 -29 137 -9 33 -17 69 -19 80 -2
11 -5 20 -6 20 -1 0 -4 9 -5 20 -2 11 -11 45 -19 75 -9 30 -18 62 -20 70 -2 8
-11 42 -20 75 -10 33 -18 65 -20 72 -1 7 -5 15 -8 19 -4 3 -4 12 -1 20 3 8 1
14 -5 14 -5 0 -12 18 -16 39 -3 22 -11 52 -18 68 -6 15 -12 33 -13 38 -1 6 -3
13 -5 18 -1 4 -3 10 -4 15 -14 52 -29 99 -36 107 -4 6 -6 18 -5 28 2 9 -1 17
-5 17 -5 0 -12 15 -15 33 -4 17 -12 43 -18 57 -5 14 -11 30 -13 37 -8 38 -27
83 -35 83 -6 0 -8 4 -4 9 3 6 -6 40 -21 78 -43 113 -49 128 -50 133 0 3 -7 19
-14 35 -14 33 -21 53 -22 73 -1 6 -5 12 -10 12 -4 0 -8 9 -8 19 0 11 -4 23
-10 26 -5 3 -10 17 -10 29 0 13 -7 29 -15 36 -8 7 -15 20 -15 29 0 9 -7 27
-16 39 -8 12 -12 22 -8 22 3 0 1 6 -5 13 -6 8 -8 17 -4 20 3 4 1 7 -5 7 -7 0
-12 6 -12 13 0 8 -6 27 -14 43 -8 16 -16 36 -18 44 -2 8 -9 21 -15 28 -7 7
-13 22 -13 33 0 10 -5 19 -11 19 -5 0 -8 4 -4 10 3 5 -3 18 -14 29 -14 14 -16
22 -8 30 8 8 8 11 -1 11 -7 0 -12 7 -12 15 0 8 -5 15 -11 15 -5 0 -7 5 -4 10
3 6 1 10 -4 10 -6 0 -11 7 -11 15 0 9 -8 30 -17 48 -9 18 -16 35 -15 40 1 4
-3 7 -10 7 -6 0 -9 3 -5 6 3 3 -5 23 -18 44 -13 21 -21 41 -18 44 4 3 1 6 -5
6 -7 0 -11 3 -11 8 3 13 -25 72 -34 72 -4 0 -5 5 -2 10 3 6 3 10 -2 10 -4 0
-17 21 -27 48 -11 26 -22 49 -25 52 -3 3 -26 43 -50 90 -66 126 -82 154 -93
161 -5 3 -9 9 -9 13 2 17 0 24 -17 42 -10 10 -18 23 -19 27 -1 17 -38 82 -51
90 -7 5 -10 12 -7 18 4 5 1 9 -5 9 -7 0 -10 7 -6 15 3 9 0 15 -10 15 -8 0 -12
5 -9 10 3 6 1 10 -5 10 -6 0 -8 5 -5 10 3 6 1 10 -5 10 -6 0 -8 5 -5 10 3 5 2
10 -3 10 -5 0 -15 12 -23 28 -17 32 -54 92 -69 110 -6 6 -8 12 -5 12 4 0 0 7
-7 15 -31 34 -36 43 -31 49 4 3 1 6 -6 6 -7 0 -9 5 -6 10 3 6 2 10 -3 10 -5 0
-15 14 -22 30 -7 17 -17 30 -22 30 -5 0 -6 5 -3 10 3 6 3 10 -2 10 -4 0 -21
21 -38 48 -16 26 -34 50 -40 54 -6 5 -6 8 0 8 6 0 6 3 -1 8 -15 10 -68 82 -60
82 5 0 -1 8 -46 62 -10 12 -18 25 -18 29 0 4 -6 14 -13 21 -6 7 -23 30 -37 50
-14 21 -28 38 -32 38 -5 0 -8 7 -8 15 0 8 -4 15 -10 15 -5 0 -10 7 -10 15 0 8
-4 15 -8 15 -4 0 -16 13 -25 30 -10 16 -23 35 -30 42 -7 7 -24 29 -37 48 -13
19 -32 42 -42 51 -10 9 -18 21 -18 28 0 6 -4 11 -8 11 -4 0 -15 12 -24 28 -9
15 -26 37 -38 50 -11 12 -18 22 -14 22 4 0 -5 9 -20 21 -14 11 -26 25 -26 31
0 6 -11 21 -25 34 -14 13 -25 27 -25 33 0 5 -3 11 -7 13 -7 2 -81 87 -128 145
-27 34 -162 186 -207 235 -21 22 -38 42 -38 43 0 2 -17 21 -37 42 -21 21 -55
58 -75 81 -21 23 -38 40 -38 37 0 -3 -16 12 -35 34 -38 42 -173 177 -251 252
-27 26 -56 55 -65 65 -8 11 -39 39 -68 64 -49 43 -95 84 -202 186 -26 24 -50
44 -53 44 -4 0 -22 15 -41 33 -19 17 -40 37 -47 42 -40 31 -143 121 -146 128
-2 4 -8 7 -13 7 -6 0 -24 12 -40 28 -17 15 -42 37 -55 50 -14 12 -28 22 -32
22 -4 0 -23 15 -43 33 -20 17 -47 39 -59 47 -12 8 -28 20 -34 25 -25 22 -82
62 -91 64 -5 1 -14 9 -18 17 -4 8 -15 14 -23 14 -8 0 -12 5 -9 10 3 6 1 10 -5
10 -6 0 -18 6 -25 13 -33 29 -45 37 -53 37 -5 0 -15 7 -22 15 -14 17 -217 156
-226 155 -3 -1 -13 7 -22 17 -18 19 -46 38 -72 50 -8 4 -17 9 -20 13 -9 10
-65 44 -67 39 -1 -2 -13 10 -27 26 -14 17 -26 26 -26 20 0 -7 -3 -7 -8 0 -7
10 -77 58 -117 81 -74 42 -143 85 -157 98 -10 9 -18 13 -18 10 0 -5 -59 25
-70 36 -16 16 -92 50 -100 45 -5 -3 -10 1 -10 9 0 9 -8 16 -19 16 -11 0 -21 4
-23 8 -3 8 -53 36 -305 168 -35 18 -63 30 -63 26 0 -4 -4 -2 -8 3 -9 13 -174
95 -190 95 -7 0 -12 4 -12 9 0 8 -37 24 -52 22 -5 -1 -8 4 -8 10 0 5 -4 7 -10
4 -5 -3 -10 -1 -10 6 0 7 -3 10 -6 6 -3 -3 -29 6 -57 20 -28 15 -57 26 -64 26
-7 0 -13 4 -13 9 0 4 -4 8 -10 8 -5 0 -39 14 -75 30 -36 17 -70 30 -75 30 -6
0 -10 4 -10 10 0 5 -7 7 -15 4 -8 -4 -15 -2 -15 4 0 5 -11 13 -25 16 -13 3
-37 11 -52 18 -15 6 -30 12 -33 13 -3 1 -21 9 -40 17 -46 20 -73 30 -85 34 -5
1 -39 14 -75 29 -36 14 -85 33 -110 42 -25 8 -56 20 -70 26 -14 6 -27 11 -30
12 -3 1 -12 4 -20 7 -38 14 -96 29 -104 28 -5 -1 -12 2 -15 7 -6 8 -59 30 -96
39 -32 8 -38 10 -68 22 -16 7 -36 12 -46 12 -9 0 -22 5 -29 12 -7 7 -12 9 -12
6 0 -4 -16 0 -35 8 -20 8 -40 12 -45 9 -4 -3 -10 0 -12 5 -2 6 -17 13 -33 16
-17 2 -47 11 -68 19 -20 8 -39 15 -42 15 -10 0 -60 13 -70 18 -5 3 -18 7 -30
9 -36 5 -50 8 -62 16 -7 5 -17 6 -22 2 -5 -3 -12 -1 -16 5 -3 5 -17 10 -30 10
-13 0 -26 4 -29 9 -4 5 -14 8 -24 6 -9 -1 -23 2 -30 8 -7 5 -15 7 -19 4 -3 -4
-12 -2 -20 4 -7 6 -22 9 -33 6 -11 -3 -20 -2 -20 3 0 4 -12 10 -27 13 -16 3
-39 8 -53 11 -14 4 -36 9 -50 11 -22 4 -74 16 -135 32 -11 3 -30 5 -42 6 -13
1 -23 5 -23 10 0 5 -13 7 -30 5 -16 -3 -30 -2 -30 2 0 3 -8 6 -17 7 -10 1 -40
7 -68 13 -27 6 -66 13 -85 16 -19 3 -46 7 -60 10 -14 2 -44 7 -67 10 -24 4
-43 9 -43 13 0 3 -15 7 -32 7 -38 2 -111 11 -118 15 -3 1 -16 3 -30 4 -14 1
-41 5 -60 8 -44 8 -103 17 -155 23 -22 2 -58 7 -80 9 -22 3 -65 7 -95 9 -30 2
-62 6 -70 9 -14 5 -47 8 -235 23 -33 2 -99 6 -146 8 -48 2 -90 6 -95 8 -11 6
-81 8 -566 13 -201 2 -369 1 -372 -2z"/>
</g>
</svg>
