<?xml version="1.0" standalone="no"?>
<!DOCTYPE svg PUBLIC "-//W3C//DTD SVG 20010904//EN"
 "http://www.w3.org/TR/2001/REC-SVG-20010904/DTD/svg10.dtd">
<svg version="1.0" xmlns="http://www.w3.org/2000/svg"
 width="1358.000000pt" height="1358.000000pt" viewBox="0 0 1358.000000 1358.000000"
 preserveAspectRatio="xMidYMid meet">
<metadata>
Created by potrace 1.14, written by Peter Selinger 2001-2017
</metadata>
<g transform="translate(0.000000,1358.000000) scale(0.100000,-0.100000)"
fill="#000000" stroke="none">
<path d="M1284 13559 c-12 -20 -12 -93 0 -108 8 -11 8 -13 -1 -8 -8 5 -10 -5
-7 -35 5 -46 5 -48 4 -93 0 -16 1 -41 3 -55 2 -14 0 -33 -5 -42 -4 -9 -4 -19
0 -22 7 -4 11 -61 15 -218 1 -27 5 -48 10 -48 4 0 3 -9 -3 -19 -5 -11 -6 -22
-2 -25 10 -6 9 -36 -2 -54 -4 -6 -4 -12 1 -12 7 0 10 -35 16 -178 1 -28 0 -52
-3 -52 -7 0 -4 -86 4 -105 3 -8 1 -15 -3 -15 -5 0 -7 -9 -4 -20 3 -11 1 -20
-4 -20 -5 0 -9 -9 -9 -20 0 -11 4 -20 9 -20 4 0 5 -6 0 -12 -4 -7 -9 -30 -10
-52 -1 -21 -8 -44 -14 -52 -6 -8 -7 -14 -2 -14 7 0 9 -45 2 -60 -1 -3 -3 -18
-3 -35 -2 -30 13 -55 32 -55 6 0 13 -7 16 -16 4 -9 9 -14 13 -10 3 3 17 -1 30
-9 13 -9 23 -12 23 -9 0 4 8 -2 18 -12 9 -10 25 -20 36 -22 10 -2 28 -12 39
-23 11 -10 29 -19 39 -19 10 0 18 -4 18 -9 0 -5 15 -14 33 -22 17 -7 34 -15
37 -19 9 -10 55 -37 64 -38 5 0 13 -7 18 -16 5 -9 14 -16 19 -16 6 0 17 -6 24
-12 35 -31 45 -38 46 -31 0 4 4 -2 9 -14 5 -13 17 -23 25 -23 9 0 13 -4 10
-10 -3 -5 -1 -10 4 -10 6 0 10 -6 9 -12 -2 -7 2 -12 9 -11 8 2 10 -4 6 -14 -4
-11 -3 -14 5 -9 7 4 12 1 12 -9 0 -9 9 -19 20 -22 11 -3 20 -11 20 -17 0 -11
57 -40 73 -37 5 1 6 -3 3 -8 -4 -5 -2 -12 4 -16 5 -3 10 0 10 7 1 7 6 4 13 -8
7 -12 18 -19 25 -17 6 3 12 0 12 -7 0 -6 14 -16 30 -21 17 -6 30 -15 30 -21 0
-5 4 -7 8 -4 5 3 25 -10 45 -28 21 -19 37 -31 37 -29 0 3 13 -9 29 -26 16 -17
32 -31 35 -31 4 0 17 -11 30 -25 13 -13 26 -21 30 -17 4 4 6 2 4 -4 -4 -14 63
-84 75 -77 6 3 7 1 3 -5 -4 -7 -2 -12 4 -12 6 0 8 -4 5 -10 -6 -9 8 -14 28
-11 5 1 6 -3 2 -9 -3 -5 -1 -10 6 -10 7 0 9 -3 6 -6 -3 -4 7 -19 23 -34 16
-15 26 -30 23 -34 -3 -3 0 -6 9 -6 8 0 21 -11 28 -25 7 -14 17 -25 22 -25 4 0
8 -4 8 -10 0 -5 14 -23 31 -40 18 -16 29 -30 25 -30 -6 0 2 -11 32 -45 6 -7
12 -18 12 -24 0 -6 4 -11 9 -11 5 0 12 -11 15 -25 4 -14 11 -25 17 -25 6 0 7
-4 4 -10 -3 -5 -2 -10 3 -10 5 0 19 -22 32 -50 13 -27 27 -50 32 -50 4 0 8 -9
8 -19 0 -10 7 -21 15 -25 8 -3 12 -12 9 -21 -3 -8 -2 -15 4 -15 9 0 25 -37 23
-52 -1 -5 4 -8 10 -8 5 0 7 -4 4 -10 -3 -5 -1 -10 4 -10 6 0 11 -7 11 -15 0
-8 9 -30 19 -49 11 -19 17 -37 14 -40 -4 -3 1 -14 9 -23 15 -17 27 -57 31 -95
1 -10 5 -18 10 -18 4 0 5 -4 2 -10 -3 -5 -1 -10 4 -10 6 0 11 -12 11 -26 0
-14 4 -22 10 -19 6 3 7 -1 4 -10 -4 -8 -1 -21 5 -29 6 -7 8 -16 4 -19 -3 -4
-1 -12 4 -19 11 -13 28 -83 26 -105 0 -7 4 -13 10 -13 6 0 7 -3 4 -7 -4 -3 -1
-13 6 -21 10 -13 9 -14 -1 -8 -11 7 -12 4 -3 -12 6 -11 11 -32 11 -46 0 -14 5
-26 11 -26 8 0 8 -4 0 -14 -8 -9 -8 -16 -2 -20 5 -4 8 -15 6 -26 -2 -11 1 -20
7 -20 7 0 6 -6 -2 -15 -7 -8 -8 -15 -3 -15 5 0 9 -10 8 -22 -1 -13 2 -29 8
-35 6 -9 6 -13 -2 -13 -8 0 -7 -6 3 -16 9 -8 16 -20 16 -25 0 -5 11 -14 24
-18 21 -9 23 -15 25 -93 6 -227 5 -528 -1 -528 -4 0 -5 -7 -1 -16 10 -28 9
-424 -2 -428 -7 -3 -7 -5 0 -5 6 -1 9 -30 8 -71 -2 -53 1 -69 10 -63 9 5 9 3
1 -8 -13 -16 -14 -376 -1 -396 4 -6 3 -14 -1 -17 -8 -5 -8 -56 -2 -91 2 -6 1
-12 0 -15 -7 -16 -4 -80 3 -80 5 0 5 -6 -1 -13 -7 -8 -7 -18 -2 -27 5 -8 6
-19 2 -24 -9 -16 -9 -66 0 -66 5 0 6 -6 2 -12 -11 -17 -12 -48 -3 -48 5 0 5
-11 0 -23 -5 -13 -6 -30 -1 -37 4 -7 4 -25 0 -40 -4 -15 -4 -33 0 -39 4 -7 4
-30 0 -52 -4 -21 -4 -39 1 -39 5 0 4 -11 -1 -25 -5 -13 -6 -26 -2 -29 9 -5 7
-53 -2 -92 -4 -15 -3 -23 3 -20 10 7 9 -13 -2 -30 -3 -6 -3 -14 0 -18 11 -11
12 -36 1 -36 -7 0 -6 -5 1 -14 9 -11 9 -15 -1 -19 -7 -3 -8 -6 -2 -6 9 -1 11
-47 4 -86 -2 -6 -1 -14 0 -20 7 -27 4 -71 -5 -77 -7 -5 -6 -11 0 -15 14 -10
13 -76 0 -85 -7 -5 -7 -8 0 -8 6 0 10 -16 11 -35 0 -18 -4 -31 -9 -28 -5 3 -4
-4 2 -15 8 -14 8 -23 1 -27 -8 -5 -8 -11 -1 -19 6 -7 8 -16 4 -20 -9 -9 -11
-46 -2 -46 8 0 5 -62 -5 -78 -3 -6 -3 -13 2 -16 11 -6 9 -106 -1 -124 -5 -6
-4 -12 1 -12 12 0 10 -53 -3 -62 -6 -5 -5 -8 4 -8 11 0 11 -3 0 -17 -8 -9 -9
-14 -3 -10 12 7 14 -59 2 -78 -4 -6 -3 -17 2 -25 5 -8 4 -22 -2 -33 -5 -11 -6
-17 -1 -14 12 7 11 -203 -1 -222 -6 -10 -5 -12 3 -7 8 5 10 0 7 -18 -3 -14 -7
-30 -10 -35 -4 -5 -2 -12 2 -15 10 -6 8 -48 -2 -65 -4 -5 -2 -13 4 -16 8 -5 8
-11 0 -20 -8 -9 -8 -15 0 -20 6 -3 7 -12 3 -18 -10 -16 -11 -47 -2 -47 6 0 6
-48 -1 -75 -1 -5 -1 -12 0 -15 8 -16 4 -120 -5 -120 -6 0 -6 -3 1 -8 9 -6 12
-66 4 -82 -1 -3 -1 -9 0 -15 8 -31 4 -135 -5 -135 -6 0 -6 -3 1 -8 14 -9 13
-64 -1 -74 -6 -5 -6 -8 1 -8 10 0 12 -32 4 -65 -1 -5 -1 -12 0 -15 6 -17 5
-52 -2 -56 -5 -3 -4 -12 2 -19 8 -9 8 -15 0 -20 -6 -3 -7 -11 -4 -17 10 -16
11 -128 1 -128 -6 0 -6 -5 -1 -12 11 -16 11 -39 1 -55 -5 -8 -3 -13 4 -13 8 0
9 -3 0 -13 -6 -8 -8 -17 -5 -20 11 -11 10 -127 -1 -127 -7 0 -7 -3 0 -8 13 -9
14 -62 2 -62 -5 0 -5 -6 1 -13 6 -7 7 -19 3 -26 -5 -7 -5 -27 -1 -45 4 -18 3
-42 -1 -54 -5 -12 -4 -22 0 -22 5 0 5 -16 1 -34 -4 -19 -5 -38 -2 -41 8 -8 9
-55 0 -55 -3 0 -4 -12 -1 -28 3 -15 5 -31 4 -37 -1 -15 -12 -195 -14 -230 -1
-16 -6 -33 -12 -37 -6 -5 -5 -8 3 -8 7 0 10 -5 7 -11 -4 -6 -9 -38 -12 -72 -3
-34 -9 -63 -14 -65 -5 -2 -5 -11 1 -22 6 -12 6 -21 1 -25 -6 -3 -10 -13 -10
-23 -1 -23 -9 -86 -11 -89 -2 -2 -4 -7 -5 -13 -1 -5 -3 -11 -5 -12 -1 -2 -3
-12 -5 -23 -2 -11 -6 -36 -10 -55 -3 -19 -7 -42 -9 -50 -1 -9 -5 -21 -10 -28
-4 -6 -5 -12 -3 -12 5 0 1 -17 -38 -165 -15 -55 -27 -106 -27 -112 -1 -7 -5
-13 -9 -13 -5 0 -6 -7 -3 -15 4 -8 1 -15 -7 -15 -7 0 -10 -3 -6 -6 3 -3 -1
-25 -10 -47 -8 -23 -16 -46 -17 -52 -1 -5 -5 -16 -10 -23 -4 -7 -5 -16 -2 -19
3 -3 2 -11 -3 -17 -5 -6 -19 -40 -30 -76 -12 -36 -26 -74 -31 -85 -5 -11 -19
-42 -31 -70 -50 -116 -115 -246 -166 -330 -30 -49 -59 -99 -66 -110 -7 -11
-18 -24 -25 -28 -6 -4 -12 -15 -12 -22 0 -8 -4 -15 -10 -15 -5 0 -10 -7 -10
-15 0 -8 -4 -15 -10 -15 -5 0 -10 -5 -10 -11 0 -6 -6 -16 -12 -23 -7 -7 -22
-25 -33 -41 -23 -31 -68 -87 -129 -159 -56 -67 -220 -231 -285 -286 -29 -25
-61 -52 -71 -61 -10 -8 -31 -24 -46 -35 -14 -10 -36 -27 -48 -36 -47 -39 -112
-85 -129 -91 -9 -3 -17 -11 -17 -17 0 -6 -4 -9 -9 -6 -4 3 -16 -3 -26 -14 -10
-11 -24 -20 -32 -20 -7 0 -13 -4 -13 -9 0 -5 -13 -14 -30 -21 -17 -7 -30 -16
-30 -21 0 -5 -7 -9 -15 -9 -8 0 -15 -4 -15 -9 0 -5 -8 -12 -18 -15 -46 -15
-80 -61 -102 -139 -12 -43 -23 -86 -25 -96 -2 -9 -11 -47 -20 -84 -9 -36 -14
-71 -10 -77 3 -5 2 -10 -4 -10 -5 0 -12 -17 -16 -38 -3 -22 -12 -51 -20 -65
-8 -15 -10 -27 -5 -27 5 0 3 -12 -5 -27 -23 -46 -45 -100 -45 -111 0 -6 -5
-23 -12 -39 -6 -15 -12 -31 -13 -35 -2 -5 -4 -10 -5 -13 -1 -3 -4 -9 -5 -15
-1 -5 -4 -12 -5 -15 -1 -3 -4 -9 -5 -15 -1 -5 -4 -12 -5 -15 -1 -3 -3 -8 -4
-12 -1 -5 -4 -12 -8 -18 -8 -13 -51 -159 -48 -164 1 -2 -3 -7 -9 -11 -6 -3
-13 -15 -15 -26 -4 -16 -30 -94 -53 -154 -3 -8 -7 -19 -9 -25 -1 -5 -10 -28
-20 -50 -19 -44 -31 -99 -16 -77 5 8 12 13 16 13 3 -1 7 -1 9 0 1 0 15 2 30 3
16 1 31 6 35 12 4 6 23 16 42 24 19 8 37 16 40 20 7 7 65 33 66 28 0 -1 8 5
18 15 10 9 22 15 27 12 5 -4 9 -2 9 4 0 9 40 27 49 22 2 -2 8 4 13 12 4 9 22
18 38 22 17 4 30 10 30 15 0 9 27 20 44 19 5 0 12 3 15 8 8 11 104 58 114 55
4 -1 7 3 7 9 0 5 5 7 10 4 6 -3 13 1 16 9 3 9 10 14 14 11 5 -3 25 4 44 15 20
11 36 17 36 14 0 -4 6 -2 13 3 10 9 81 36 97 38 3 0 12 5 20 10 8 5 21 10 29
12 8 1 18 9 23 18 5 8 13 13 18 10 4 -3 21 2 36 10 16 8 35 15 42 15 6 0 12 5
12 10 0 6 8 10 17 8 10 -2 17 2 16 9 -1 6 5 10 15 9 18 -3 25 -1 79 28 17 9
38 16 47 16 9 0 16 5 16 11 0 6 7 8 15 5 9 -3 18 1 21 9 4 8 10 12 15 10 5 -3
23 2 40 10 17 9 43 19 58 21 14 3 27 9 29 14 2 5 9 7 17 4 7 -3 16 0 20 5 3 6
11 8 17 5 6 -4 14 -1 18 5 4 7 18 13 31 15 14 1 29 5 35 9 9 5 138 44 169 50
6 2 16 6 23 10 6 5 12 6 12 3 0 -3 21 1 47 9 25 8 50 12 54 9 4 -2 11 1 14 7
4 5 13 8 20 5 7 -2 16 -2 19 2 4 3 12 7 19 8 7 1 23 5 37 8 14 3 36 7 50 10
13 3 39 7 57 8 18 1 33 5 33 8 0 4 15 7 33 8 17 1 48 4 67 7 19 3 51 8 70 10
19 3 53 7 75 10 38 5 120 13 175 18 14 1 28 7 32 12 5 6 8 6 8 -2 0 -11 20
-11 61 2 12 4 19 2 19 -7 0 -10 3 -9 10 2 5 8 10 12 10 9 0 -4 16 -3 35 1 22
5 35 4 35 -2 0 -6 5 -7 13 -2 6 5 47 9 89 9 43 0 78 4 78 9 0 5 6 4 13 -2 8
-7 18 -7 27 -2 8 5 21 6 29 2 15 -7 46 -7 64 -2 20 6 33 5 45 -3 7 -6 12 -6
12 0 0 5 9 9 20 9 11 0 20 -4 20 -8 0 -4 5 -8 11 -8 5 0 8 3 6 8 -3 4 14 7 38
7 24 0 42 -2 40 -5 -5 -8 59 -5 72 3 6 4 14 3 17 -1 3 -5 31 -9 63 -8 32 1 64
-2 71 -7 8 -6 12 -5 12 3 0 10 3 10 15 0 11 -9 15 -9 15 -1 0 7 4 10 10 6 5
-3 44 -8 87 -10 205 -10 307 -20 324 -31 5 -3 9 0 9 6 0 7 5 8 13 3 6 -4 26
-9 42 -10 17 0 30 -2 30 -3 0 -1 14 -3 31 -5 18 -1 39 -5 48 -8 9 -4 16 -1 16
6 0 8 3 8 9 -2 5 -8 18 -12 29 -9 10 3 27 1 36 -4 11 -6 16 -5 16 4 0 10 2 10
9 -1 5 -8 16 -11 25 -8 9 4 16 3 16 -1 0 -4 10 -8 23 -8 64 -4 107 -10 107
-14 0 -3 9 -6 20 -7 11 -1 18 2 15 7 -3 5 6 3 20 -4 14 -7 36 -12 50 -10 14 1
25 -1 25 -5 0 -4 19 -8 42 -10 22 -1 49 -6 59 -11 23 -13 32 -13 23 1 -5 8 -1
8 14 0 11 -6 41 -12 66 -13 25 -2 46 -6 46 -11 0 -4 3 -6 8 -5 6 2 76 -7 147
-19 11 -2 27 -4 35 -5 8 0 21 -5 28 -11 8 -6 12 -5 12 4 0 9 3 10 8 4 9 -13
22 -16 132 -29 19 -2 36 -5 38 -6 1 -1 12 -3 25 -3 12 -1 25 -6 29 -11 5 -7 8
-5 8 4 0 10 3 11 8 4 4 -7 27 -15 52 -18 25 -3 63 -9 85 -12 22 -3 51 -7 65
-9 14 -2 25 -4 25 -5 0 -4 43 -10 82 -13 24 -1 43 -4 43 -7 0 -5 74 -11 152
-14 21 0 38 -4 38 -8 0 -4 8 -7 18 -6 9 0 55 -3 102 -6 118 -9 275 -18 337
-20 29 0 53 -4 53 -8 0 -4 11 -3 24 2 13 5 27 6 30 2 12 -11 56 -9 56 2 0 8 2
8 8 0 8 -13 652 -15 652 -2 0 5 9 4 20 -2 14 -8 20 -8 20 0 0 7 6 8 19 1 10
-6 21 -8 24 -4 6 5 74 11 202 17 33 1 66 5 73 10 7 4 12 2 12 -5 0 -8 4 -8 12
-2 7 6 33 11 58 12 51 1 85 7 100 16 6 3 10 1 10 -5 0 -6 5 -8 12 -4 7 5 27 9
45 11 18 1 49 5 70 8 21 3 53 7 72 9 18 2 37 10 42 17 6 9 9 10 9 2 0 -6 6
-10 13 -9 6 2 28 6 47 10 35 7 50 10 125 21 22 4 54 10 70 15 17 5 48 11 70
14 43 6 78 13 83 16 1 2 6 3 11 4 5 0 13 4 17 8 4 4 13 3 21 -3 8 -7 13 -8 13
-1 0 5 20 13 45 16 25 4 45 13 45 19 0 7 4 6 10 -3 5 -8 10 -10 10 -4 0 6 6
11 13 12 19 1 70 12 87 18 19 7 61 16 78 17 6 0 12 3 12 7 0 4 6 7 13 7 6 0
26 4 42 8 17 3 36 7 43 7 6 1 12 4 12 8 0 5 18 9 58 12 6 1 12 6 12 11 0 5 9
7 20 4 11 -3 20 -1 20 4 0 5 9 9 19 9 11 0 22 4 26 9 3 6 14 8 25 6 11 -2 20
0 20 6 0 5 3 8 8 7 11 -2 66 14 78 23 6 5 23 10 38 11 14 1 26 6 26 11 0 5 7
7 15 3 8 -3 15 -1 15 3 0 5 18 12 41 16 22 4 43 13 46 21 3 8 9 11 14 8 6 -3
21 2 35 11 14 9 32 14 40 11 8 -3 13 -2 10 3 -5 8 40 26 57 23 4 -1 7 3 7 9 0
5 5 7 10 4 6 -3 10 -1 10 5 0 6 5 8 10 5 6 -3 10 -1 10 6 0 7 3 9 7 6 3 -4 15
0 25 10 10 9 18 13 18 9 0 -3 27 7 60 24 33 17 60 27 60 23 0 -4 7 2 15 13 8
10 15 15 15 10 0 -5 9 -1 20 9 11 10 20 14 20 10 0 -4 8 -1 18 8 10 10 22 14
25 10 4 -3 7 0 7 7 0 7 3 10 7 7 4 -4 20 5 36 20 17 16 26 21 22 13 -6 -9 5
-6 26 8 18 13 46 28 62 34 15 5 27 14 27 19 0 5 7 9 15 9 8 0 24 9 34 19 11
11 22 17 25 13 3 -3 6 0 6 6 0 7 7 12 15 12 7 0 18 8 24 18 5 9 12 16 15 15
10 -4 40 10 51 23 6 7 27 21 47 32 21 10 35 22 32 24 -3 3 9 10 26 16 16 6 33
18 36 26 3 9 10 13 15 10 5 -3 9 0 9 6 0 6 4 9 9 6 5 -3 11 1 15 9 3 8 10 15
16 15 6 0 22 12 35 26 14 15 25 23 25 18 0 -5 11 4 25 20 14 16 25 25 25 20 0
-5 11 4 25 20 14 16 25 26 25 21 0 -4 19 11 42 34 24 22 46 41 51 41 4 0 5 4
2 10 -3 5 -1 10 6 10 14 0 59 46 59 61 0 5 4 8 8 6 11 -3 82 70 74 77 -3 3 2
6 11 6 10 0 17 5 17 10 0 6 21 34 48 61 80 86 92 100 92 104 0 5 27 40 53 67
9 10 18 23 20 30 1 6 14 24 30 40 15 15 27 32 27 38 0 5 5 10 12 10 6 0 9 3 5
6 -3 4 -1 12 6 20 29 33 37 44 37 54 0 5 5 10 10 10 6 0 10 7 10 15 0 8 5 15
11 15 5 0 7 5 4 10 -3 6 -1 10 4 10 6 0 11 5 11 10 0 6 12 29 27 53 15 23 26
45 25 50 -1 4 3 7 9 7 5 0 7 5 4 10 -3 6 -1 10 5 10 6 0 8 5 5 10 -3 6 -2 10
4 10 5 0 15 16 22 35 7 19 17 35 22 35 4 0 6 4 3 9 -4 5 -2 11 3 13 5 1 11 12
13 23 1 11 7 23 11 26 5 3 9 12 11 20 1 8 10 28 19 45 9 17 13 34 10 38 -4 3
-1 6 6 6 8 0 11 7 7 15 -3 8 -2 15 3 15 8 0 24 41 26 66 0 6 5 18 11 25 9 12
35 95 38 124 1 6 4 13 8 16 5 3 9 17 10 32 1 15 6 27 11 27 4 0 5 5 2 10 -3 6
-3 15 1 22 4 7 9 21 10 33 1 11 5 34 9 50 3 17 8 39 9 50 2 11 4 20 5 20 1 0
4 20 7 45 6 63 9 73 17 87 4 6 3 14 -3 18 -6 4 -7 12 -3 18 10 16 13 50 14
217 1 187 -12 357 -37 460 -3 14 -7 34 -8 45 -2 11 -4 20 -5 20 -1 0 -4 11 -6
25 -10 56 -26 113 -38 128 -5 6 -7 12 -3 12 3 0 0 15 -8 34 -8 19 -12 37 -8
40 3 3 0 6 -7 6 -7 0 -9 5 -6 10 4 6 1 17 -5 25 -7 8 -9 15 -5 15 4 0 2 7 -5
15 -7 8 -9 15 -4 15 4 0 3 5 -4 12 -7 7 -12 20 -12 30 0 10 -5 18 -11 18 -5 0
-8 4 -4 9 3 5 1 12 -5 16 -6 4 -8 11 -5 16 4 5 1 9 -4 9 -6 0 -11 6 -11 13 0
24 -66 148 -75 140 -4 -4 -6 -3 -3 2 4 6 -5 28 -18 50 -13 22 -30 51 -36 65
-7 14 -21 33 -31 43 -10 10 -15 23 -11 29 4 6 3 8 -3 5 -10 -6 -28 19 -25 35
1 4 -7 10 -18 13 -11 4 -20 11 -20 17 0 6 -10 19 -22 29 -11 11 -17 19 -13 19
4 0 -4 11 -19 25 -14 13 -26 26 -26 29 0 12 -102 117 -204 211 -80 74 -94 85
-100 85 -6 0 -44 31 -72 58 -8 7 -14 10 -14 6 0 -4 -9 3 -20 16 -11 13 -20 19
-20 14 0 -5 -5 -1 -11 9 -5 9 -17 17 -24 17 -8 0 -15 5 -15 12 0 6 -3 9 -6 5
-3 -3 -15 3 -27 13 -11 11 -24 17 -29 14 -4 -3 -8 -1 -8 4 0 5 -13 15 -30 22
-16 7 -30 16 -30 20 0 4 -11 11 -24 14 -14 3 -31 12 -38 19 -14 13 -70 40 -77
37 -2 -1 -7 2 -10 7 -3 4 -37 24 -76 43 -38 19 -71 38 -73 43 -2 4 -14 7 -26
7 -12 0 -28 6 -34 13 -7 6 -16 12 -20 12 -4 1 -16 6 -27 12 -11 6 -29 13 -40
14 -11 2 -23 8 -27 13 -3 5 -12 11 -20 12 -7 1 -51 17 -98 35 -47 18 -88 32
-92 31 -5 -1 -8 3 -8 10 0 6 -3 8 -6 5 -4 -3 -16 -1 -28 5 -19 11 -35 15 -73
20 -7 1 -13 4 -13 8 0 4 -6 7 -12 8 -14 1 -35 6 -58 14 -21 8 -104 33 -112 34
-5 1 -11 3 -15 4 -5 1 -11 2 -15 1 -5 0 -8 4 -8 10 0 5 -6 7 -12 3 -7 -4 -2 4
12 18 14 13 28 23 33 21 4 -2 7 0 7 6 0 6 11 13 25 17 14 3 25 10 25 16 0 5 5
6 10 3 6 -3 10 -1 10 4 0 6 4 11 9 11 5 0 46 23 90 50 45 28 81 48 81 45 0 -3
10 3 22 15 12 11 40 29 62 41 22 12 53 32 69 45 16 13 33 22 38 18 5 -3 9 -1
9 3 0 10 84 72 102 76 6 1 19 9 29 17 40 34 49 40 58 40 6 0 14 6 18 13 10 16
69 57 82 57 5 0 11 3 13 8 2 4 24 24 50 45 26 21 54 45 63 53 8 9 15 13 15 9
0 -3 12 7 26 22 15 15 30 27 35 25 5 -1 9 5 9 13 0 8 3 15 8 15 4 0 36 28 72
62 36 35 68 62 73 60 4 -1 7 3 7 8 0 6 29 40 65 75 36 36 65 70 65 77 0 6 3 8
6 5 4 -4 18 8 33 26 14 18 35 43 46 55 53 63 65 78 65 85 0 5 5 5 10 2 6 -4 9
-3 8 2 -3 9 30 58 63 93 8 9 18 24 22 33 3 9 11 17 17 17 5 0 10 5 10 10 0 16
71 120 82 120 5 0 6 5 3 10 -3 6 -1 10 5 10 6 0 9 4 6 9 -3 4 3 16 14 26 11
10 18 21 15 25 -2 4 4 16 15 27 10 12 16 24 13 27 -4 3 -1 6 5 6 7 0 12 5 12
11 0 7 8 18 18 26 10 9 11 11 2 7 -12 -6 -11 -3 2 12 25 29 121 217 106 208
-7 -4 -3 3 10 15 12 12 22 28 22 36 0 8 5 15 11 15 5 0 7 5 4 10 -4 6 -1 17 5
25 7 8 9 15 5 15 -5 0 0 10 11 22 10 12 14 18 7 15 -6 -4 -2 12 9 35 12 24 21
49 21 56 0 6 4 12 9 12 4 0 7 3 6 8 -4 14 14 78 29 101 11 18 12 21 2 15 -12
-6 -12 -5 0 9 7 9 11 23 8 31 -3 8 -1 16 5 18 5 2 11 18 11 36 1 18 5 32 9 32
4 0 5 6 2 14 -3 8 -1 17 5 20 6 4 8 13 4 21 -3 8 0 15 6 15 6 0 8 7 5 15 -4 8
-3 23 1 33 4 9 9 28 11 42 5 32 12 65 14 65 1 0 3 18 5 40 9 89 11 100 18 112
4 6 3 15 -3 18 -8 5 -8 11 -1 19 6 7 9 22 6 34 -2 12 1 24 7 28 6 4 5 10 -3
15 -12 7 -12 9 0 9 11 0 11 3 1 15 -7 8 -8 15 -4 15 5 0 9 32 9 70 -1 39 3 70
8 70 5 0 5 6 -1 13 -7 8 -7 18 -2 27 5 8 5 21 -1 31 -6 11 -5 20 1 24 7 4 7
13 0 26 -8 13 -7 19 0 19 6 0 8 5 4 12 -11 18 -12 48 -2 48 5 0 6 6 1 13 -4 6
-8 40 -9 73 -1 34 -4 66 -6 70 -3 5 -5 30 -4 57 1 26 -2 47 -5 47 -5 0 -8 27
-12 98 -1 12 -4 22 -7 22 -5 0 -11 39 -13 93 -1 9 -4 17 -7 17 -3 0 -7 14 -8
31 -1 17 -7 39 -12 49 -6 10 -10 28 -10 39 0 12 -4 21 -9 21 -5 0 -7 9 -4 20
3 12 0 20 -6 20 -7 0 -10 4 -7 9 5 8 -33 142 -43 151 -4 3 -8 14 -9 25 -2 11
-7 22 -12 25 -4 3 -6 13 -4 23 1 9 -3 17 -9 17 -5 0 -7 3 -4 7 4 3 0 17 -8 30
-9 13 -13 28 -10 33 3 6 2 10 -3 10 -9 0 -52 97 -52 118 0 7 -4 10 -10 7 -5
-3 -10 3 -10 14 0 21 -31 81 -42 81 -4 0 -5 7 -2 15 4 8 2 15 -3 15 -5 0 -15
16 -23 35 -8 19 -18 35 -22 35 -5 0 -6 5 -3 10 3 6 1 10 -4 10 -6 0 -11 7 -11
15 0 8 -5 15 -11 15 -6 0 -8 7 -5 16 3 8 2 12 -4 9 -6 -3 -10 0 -10 8 0 8 -7
20 -15 27 -9 7 -13 15 -11 18 3 2 -5 13 -17 24 -12 11 -15 16 -7 12 9 -4 7 1
-5 14 -35 37 -46 52 -38 52 4 1 -1 8 -13 18 -11 9 -21 20 -22 24 -9 29 -19 44
-44 68 -15 15 -25 30 -21 33 3 4 -2 9 -11 13 -9 3 -16 10 -16 16 0 5 -10 19
-22 32 -13 13 -34 38 -48 56 -14 18 -40 48 -57 66 -18 18 -33 38 -33 44 0 6
-3 9 -7 7 -5 -3 -14 1 -21 9 -7 8 -10 14 -6 14 4 0 -9 14 -29 31 -21 17 -37
39 -37 48 0 14 -2 14 -10 1 -6 -10 -10 -11 -10 -3 0 18 -32 53 -48 53 -7 0
-10 5 -7 10 3 6 -1 10 -9 10 -9 0 -16 6 -16 14 0 8 -9 18 -20 21 -11 3 -20 13
-20 21 0 8 -6 13 -12 12 -7 -2 -12 3 -10 10 1 8 -1 11 -6 8 -5 -3 -22 8 -38
24 -16 16 -35 30 -42 30 -7 0 -10 5 -7 10 3 6 -1 10 -10 10 -9 0 -13 5 -10 10
3 6 0 10 -7 10 -8 0 -20 9 -28 19 -7 11 -17 18 -21 16 -4 -3 -9 2 -13 10 -3 8
-10 15 -16 15 -6 0 -20 9 -32 20 -12 11 -28 20 -37 20 -8 0 -11 3 -8 6 6 6
-75 64 -88 64 -3 0 -14 9 -25 20 -12 12 -25 18 -29 15 -5 -2 -12 2 -15 11 -4
9 -13 14 -22 10 -8 -3 -13 -2 -10 3 3 4 -12 16 -34 26 -22 10 -40 22 -40 27 0
5 -4 7 -8 4 -5 -3 -19 4 -30 15 -12 11 -22 17 -22 15 0 -3 -38 14 -84 38 -47
24 -87 42 -90 38 -3 -3 -6 0 -6 7 0 7 -4 10 -9 7 -5 -4 -11 -3 -13 1 -4 9
-107 55 -125 56 -7 0 -13 4 -13 9 0 4 -9 8 -19 8 -11 0 -23 5 -26 10 -3 6 -15
10 -26 10 -10 0 -19 5 -19 12 0 6 -3 8 -6 5 -4 -3 -16 -1 -28 5 -11 7 -32 14
-46 16 -13 2 -28 9 -32 15 -4 7 -8 9 -8 4 0 -4 -13 -1 -30 8 -16 8 -33 14 -37
13 -4 0 -21 4 -36 10 -16 7 -34 12 -42 12 -8 0 -17 5 -20 10 -3 6 -17 10 -29
10 -13 0 -36 6 -51 14 -15 8 -34 13 -43 11 -9 -1 -19 1 -22 6 -3 4 -17 10 -30
12 -14 2 -32 7 -40 10 -8 4 -26 9 -40 11 -14 3 -26 5 -27 7 -2 1 -12 3 -23 4
-11 1 -22 4 -25 5 -3 1 -9 4 -15 5 -5 1 -11 3 -12 4 -2 2 -14 5 -28 8 -39 7
-55 11 -55 13 0 1 -11 4 -60 14 -5 1 -16 5 -23 10 -7 4 -16 6 -19 3 -3 -3 -16
-1 -30 4 -14 5 -42 12 -62 15 -20 3 -42 11 -50 17 -12 10 -13 9 -7 -1 6 -11 4
-11 -10 -3 -11 5 -46 15 -79 21 -33 6 -69 13 -80 15 -11 3 -35 7 -53 9 -33 6
-58 11 -102 21 -27 6 -79 14 -120 19 -14 2 -51 9 -83 15 -32 6 -61 10 -65 10
-4 -1 -9 0 -12 1 -3 1 -18 3 -35 5 -16 1 -30 3 -30 5 0 1 -13 3 -30 5 -39 3
-160 16 -205 21 -19 3 -55 6 -80 8 -78 7 -183 16 -235 21 -27 2 -93 7 -145 10
-184 12 -199 13 -209 19 -5 4 -12 2 -16 -4 -4 -6 -12 -7 -18 -3 -13 8 -75 10
-527 17 -376 6 -661 9 -675 6 -6 -1 -12 -1 -15 0 -20 7 -40 7 -40 -1 0 -6 -5
-7 -10 -4 -6 3 -130 9 -278 11 -147 3 -293 6 -324 7 -32 1 -58 5 -58 9 0 5 -8
4 -19 -1 -10 -6 -21 -8 -24 -5 -3 3 -49 7 -103 9 -124 5 -280 15 -319 20 -16
2 -60 4 -97 6 -38 1 -68 5 -68 8 0 3 -37 7 -83 8 -45 1 -102 5 -127 8 -25 3
-63 7 -85 9 -22 2 -40 4 -40 5 0 1 -22 4 -50 5 -84 6 -189 17 -215 22 -14 3
-43 7 -65 9 -82 8 -131 14 -155 19 -14 2 -47 7 -75 11 -64 8 -114 15 -142 21
-56 10 -71 13 -120 18 -28 3 -62 9 -75 14 -13 4 -32 7 -43 7 -11 -1 -24 2 -30
5 -5 3 -26 7 -45 9 -19 2 -43 7 -52 12 -12 7 -18 6 -18 -1 0 -7 -6 -8 -19 -1
-10 6 -35 11 -55 13 -20 1 -36 5 -36 9 0 4 -8 6 -17 5 -10 -2 -36 1 -58 6 -39
9 -76 16 -125 23 -14 3 -43 9 -65 14 -22 5 -56 13 -75 16 -19 3 -44 9 -55 12
-11 4 -24 7 -30 8 -34 3 -132 29 -142 37 -9 7 -13 7 -13 -2 0 -9 -4 -9 -12 -2
-13 9 -62 21 -105 25 -13 1 -23 6 -23 11 0 5 -3 7 -6 3 -3 -3 -17 -2 -30 3
-14 6 -35 12 -47 14 -23 5 -55 13 -84 21 -115 30 -140 37 -153 42 -20 8 -16 7
-85 23 -68 16 -65 15 -85 23 -8 3 -53 15 -100 27 -47 12 -89 25 -95 28 -5 3
-18 7 -30 9 -26 3 -46 8 -65 16 -41 16 -124 36 -131 31 -5 -3 -9 -1 -9 4 0 9
-28 20 -72 28 -10 2 -23 5 -30 6 -7 2 -15 6 -18 9 -3 4 -16 9 -30 10 -14 2
-28 7 -31 12 -3 4 -20 9 -37 10 -18 1 -32 5 -32 10 0 4 -11 7 -25 7 -14 0 -25
5 -25 10 0 6 -10 10 -23 10 -13 0 -28 5 -35 12 -7 7 -12 9 -12 5 0 -4 -14 0
-31 8 -17 9 -37 14 -44 11 -8 -3 -15 -1 -17 4 -2 6 -29 17 -62 25 -32 9 -64
19 -70 22 -6 4 -22 9 -36 11 -13 2 -27 7 -30 11 -3 4 -17 11 -32 15 -16 3 -28
11 -28 16 0 5 -7 7 -15 4 -8 -4 -22 -1 -29 5 -11 9 -16 9 -22 0z m5199 -2943
c10 10 57 11 57 1 0 -5 6 -4 14 2 10 9 16 9 21 1 4 -7 11 -8 18 -2 14 11 352
11 362 0 4 -4 15 -3 25 2 10 5 20 7 23 4 3 -3 45 -7 94 -10 48 -2 113 -6 143
-8 30 -3 91 -8 135 -11 44 -4 91 -9 105 -11 14 -3 37 -7 53 -10 15 -2 42 -6
60 -9 17 -3 48 -8 67 -11 19 -2 44 -7 55 -9 11 -2 32 -7 48 -10 15 -3 39 -8
55 -11 15 -3 36 -7 47 -8 11 -1 38 -8 60 -14 22 -6 51 -13 65 -16 14 -2 32 -7
40 -10 8 -3 26 -7 40 -10 14 -2 63 -16 110 -30 47 -15 95 -29 108 -32 42 -9
276 -101 308 -121 11 -7 23 -11 26 -8 3 3 11 -1 18 -10 7 -8 18 -15 24 -15 12
0 98 -41 106 -51 3 -4 24 -15 46 -26 23 -11 48 -25 55 -31 17 -14 223 -153
250 -168 10 -6 16 -14 12 -17 -3 -4 -2 -7 4 -7 19 0 214 -185 295 -280 78 -91
188 -250 188 -270 0 -6 4 -10 9 -10 7 0 22 -36 20 -49 0 -2 4 -7 9 -10 8 -5
53 -85 57 -101 1 -3 11 -25 22 -50 11 -25 24 -56 28 -70 4 -14 11 -29 15 -35
7 -9 61 -168 62 -180 0 -2 6 -33 14 -67 43 -182 52 -445 19 -565 -9 -32 -17
-62 -19 -68 -6 -24 -39 -121 -45 -130 -3 -5 -6 -12 -7 -15 -11 -35 -17 -50
-23 -50 -4 0 -15 -20 -26 -45 -11 -25 -23 -45 -27 -45 -5 0 -8 -5 -8 -10 0
-11 -11 -26 -47 -66 -13 -14 -24 -28 -25 -32 -3 -9 -43 -56 -85 -99 -18 -18
-30 -33 -27 -33 4 0 -12 -15 -34 -32 -23 -18 -41 -39 -41 -46 -1 -7 -5 -10
-11 -7 -5 3 -10 1 -10 -5 0 -6 -4 -8 -10 -5 -5 3 -10 0 -10 -7 -1 -7 -30 -33
-67 -58 -36 -25 -74 -53 -83 -62 -10 -9 -21 -14 -24 -10 -3 3 -6 0 -6 -6 0 -7
-6 -12 -14 -12 -8 0 -22 -10 -31 -22 -8 -13 -19 -22 -23 -21 -16 6 -42 -9 -36
-20 4 -7 4 -9 -1 -5 -9 8 -65 -22 -65 -35 0 -4 -4 -5 -10 -2 -5 3 -10 3 -10
-2 0 -4 -15 -15 -32 -22 -18 -8 -39 -21 -46 -28 -8 -7 -18 -11 -23 -8 -5 4 -9
2 -9 -3 0 -4 -16 -14 -35 -22 -19 -8 -35 -17 -35 -22 0 -4 -3 -7 -7 -6 -5 1
-35 -10 -68 -26 -117 -54 -141 -65 -210 -88 -38 -12 -72 -25 -75 -28 -8 -8
-210 -73 -226 -73 -8 0 -14 -4 -14 -9 0 -4 -3 -7 -7 -6 -5 1 -28 -5 -53 -12
-25 -8 -47 -14 -50 -15 -3 -1 -22 -5 -43 -9 -20 -5 -40 -12 -43 -17 -3 -5 -10
-7 -15 -4 -5 4 -15 3 -21 -2 -15 -8 -19 -10 -68 -19 -19 -3 -43 -10 -52 -15
-10 -5 -18 -7 -18 -5 0 3 -12 1 -26 -4 -15 -6 -41 -12 -58 -15 -33 -5 -75 -12
-118 -21 -15 -3 -31 -6 -35 -6 -5 0 -16 -4 -27 -10 -14 -7 -17 -7 -11 2 6 9 3
9 -11 2 -11 -5 -35 -11 -54 -13 -19 -2 -39 -5 -45 -8 -5 -3 -27 -7 -48 -8 -21
-1 -44 -6 -50 -11 -7 -5 -21 -6 -32 -2 -11 4 -27 4 -35 0 -14 -7 -55 -14 -165
-25 -27 -3 -68 -8 -90 -11 -56 -7 -131 -14 -195 -19 -30 -2 -55 -4 -55 -5 0
-1 -144 -9 -237 -12 -43 -2 -78 -7 -78 -13 0 -5 -4 -4 -9 3 -11 18 -12 18 -38
3 -16 -8 -23 -8 -23 -1 0 8 -6 8 -20 0 -15 -8 -20 -8 -20 1 0 8 -5 7 -17 -2
-19 -16 -23 -16 -34 3 -5 7 -9 8 -9 2 0 -6 -27 -10 -70 -10 -40 1 -70 -3 -70
-9 0 -5 -5 -3 -10 5 -5 8 -10 11 -10 5 0 -6 -41 -9 -105 -8 -77 1 -103 -2 -98
-10 5 -9 3 -9 -8 -2 -8 6 -30 10 -49 8 -47 -3 -62 -3 -115 -2 -25 1 -48 -1
-51 -4 -3 -3 -17 -2 -31 4 -15 5 -22 5 -18 0 3 -6 -4 -9 -15 -8 -11 1 -20 6
-20 12 0 6 -3 7 -8 0 -9 -13 -193 -15 -185 -2 3 5 -4 4 -15 -2 -27 -15 -32
-14 -32 5 0 8 -4 13 -8 10 -5 -3 -9 1 -9 9 0 8 4 12 9 9 12 -7 -4 30 -16 38
-7 5 -3 8 9 8 11 0 16 3 10 8 -15 10 -16 52 -2 52 8 0 8 3 2 8 -15 10 -17 32
-5 46 5 7 7 16 3 20 -13 12 -14 48 -1 40 7 -5 8 -3 2 7 -14 24 -16 51 -2 43
10 -6 10 -4 0 8 -9 12 -10 18 -2 23 8 5 8 11 -1 21 -8 10 -8 18 -1 27 7 8 7
18 2 27 -6 9 -4 20 3 29 7 9 7 12 1 8 -7 -4 -11 12 -11 48 0 36 4 52 11 48 6
-4 5 0 -2 9 -14 17 -13 39 3 50 6 5 6 8 -2 8 -15 0 -14 62 1 72 8 6 8 8 0 8
-7 0 -12 15 -12 35 0 24 4 33 12 28 8 -5 8 -3 0 8 -14 17 -15 69 -2 69 5 0 6
5 3 10 -4 6 -11 8 -16 5 -5 -4 -6 3 -1 17 9 29 9 59 -1 76 -5 6 -4 12 2 12 6
0 8 7 5 15 -4 9 0 15 7 15 11 0 11 2 -1 10 -8 5 -11 12 -7 16 4 4 2 13 -4 21
-8 9 -8 13 -1 13 7 0 9 7 5 17 -5 12 -3 14 8 8 8 -5 5 1 -5 13 -12 14 -14 22
-7 22 7 0 9 5 6 10 -4 6 -1 18 7 27 7 9 8 14 2 10 -7 -4 -11 8 -12 33 -1 25 3
40 10 40 6 0 3 7 -8 15 -10 8 -14 15 -8 15 12 0 12 29 0 48 -5 8 -1 12 11 12
10 0 14 3 8 8 -16 11 -18 74 -3 84 9 5 7 8 -7 8 -11 0 -15 4 -10 8 6 4 10 21
10 37 0 17 -4 33 -10 37 -7 5 -7 8 0 8 13 0 13 63 0 72 -7 5 -7 8 0 8 6 0 9
19 7 45 -2 25 1 52 8 59 9 11 7 17 -7 25 -14 8 -15 10 -3 11 13 0 13 1 0 10
-8 5 -10 10 -5 10 6 0 8 26 5 69 -3 38 -2 67 2 64 5 -2 8 1 8 6 0 6 -6 11 -12
12 -9 0 -10 2 -1 5 8 4 9 14 3 35 -5 18 -5 27 1 24 5 -4 9 -1 9 4 0 6 -6 11
-12 11 -8 0 -9 3 -3 8 6 4 10 21 10 37 0 17 -4 33 -10 37 -7 5 -6 8 1 8 10 0
11 56 1 67 -3 3 -2 16 3 29 7 17 6 24 -3 25 -9 0 -9 2 1 6 6 2 9 9 6 14 -3 6
0 17 8 26 8 10 8 14 1 10 -6 -4 -14 -3 -18 3 -3 5 -2 10 3 10 9 0 8 42 -1 57
-3 5 -2 15 3 23 5 9 4 20 -3 29 -10 12 -9 14 7 8 14 -6 16 -5 8 5 -5 7 -9 35
-8 61 1 27 -2 51 -6 53 -5 3 -4 12 1 21 4 9 6 25 3 36 -4 15 -2 18 9 12 12 -7
12 -6 1 7 -9 12 -10 22 -4 35 12 22 4 45 -11 36 -7 -3 -3 4 8 17 11 13 14 20
7 16 -14 -8 -12 19 2 43 6 10 5 12 -2 7 -8 -5 -11 5 -10 28 1 22 5 33 12 29 6
-3 5 0 -1 7 -10 11 -10 17 0 29 9 12 9 13 0 7 -8 -4 -13 -2 -13 8 0 8 5 18 11
22 8 4 8 9 0 17 -7 7 -7 14 0 23 7 8 7 14 -1 19 -8 5 -7 11 2 23 10 12 10 14
1 8 -8 -4 -13 -2 -13 8 0 8 5 18 10 21 8 5 8 11 0 20 -8 10 -8 15 0 20 8 5 8
10 0 20 -6 7 -7 16 -3 18 7 4 9 62 3 62 -1 0 -3 10 -6 23 -3 15 0 21 7 16 8
-5 8 -1 0 14 -14 27 -14 35 1 26 7 -5 8 -3 2 7 -12 21 -13 59 0 59 6 0 5 4 -3
9 -8 5 -10 14 -5 22 11 18 12 59 1 66 -4 2 -3 11 3 18 8 10 8 15 -1 20 -8 6
-7 10 2 16 12 7 12 9 0 9 -11 0 -11 3 -1 15 10 12 10 15 -1 15 -10 1 -9 5 4
14 16 12 16 14 1 20 -13 5 -14 9 -4 21 6 8 9 19 5 25 -3 5 0 10 7 10 9 0 9 3
-2 10 -11 7 -11 10 -2 10 7 0 11 4 7 9 -3 5 0 13 6 17 8 4 7 9 -2 15 -9 6 -10
9 -2 9 6 0 10 11 9 25 -2 13 2 23 8 22 5 -1 11 11 11 27 0 16 6 31 13 34 7 2
12 12 12 22 0 11 8 24 18 29 9 6 13 11 8 11 -15 0 44 50 60 50 8 0 12 5 9 10
-3 6 -3 10 2 11 27 2 47 9 56 18 6 6 21 11 34 11 13 0 23 6 24 13 0 9 2 9 5 0
4 -8 13 -9 30 -3 13 5 24 7 24 4 0 -2 8 0 18 5 13 7 23 6 30 -1 9 -9 12 -9 12
0 0 7 3 11 8 11 4 -1 9 0 12 1 3 1 30 3 60 5 30 2 84 7 120 10 85 7 259 17
337 19 35 0 63 5 63 9 0 4 8 3 19 -2 10 -6 21 -8 24 -5z m577 -5207 c91 -1
175 -6 188 -11 17 -6 21 -5 16 4 -4 6 -3 8 3 5 5 -3 68 -9 139 -12 114 -5 169
-10 169 -15 0 -1 25 -3 55 -6 68 -5 128 -11 200 -19 30 -3 69 -8 85 -10 17 -2
41 -6 55 -9 14 -3 46 -8 73 -11 119 -13 144 -17 172 -25 27 -8 56 -13 145 -25
14 -2 25 -4 25 -5 0 -1 9 -3 20 -5 11 -2 43 -9 70 -16 28 -6 60 -12 73 -13 12
0 22 -5 22 -10 0 -5 3 -7 6 -3 3 3 23 -1 45 -8 21 -8 39 -12 39 -10 0 2 18 -2
39 -10 22 -7 42 -11 45 -8 3 4 6 1 6 -5 0 -7 3 -11 8 -10 9 2 74 -13 87 -20 6
-4 19 -8 29 -9 11 -2 33 -10 49 -18 17 -8 38 -15 48 -15 10 0 20 -4 23 -9 3
-5 18 -12 33 -16 39 -9 194 -84 217 -103 11 -9 16 -11 12 -4 -4 7 14 -1 41
-18 26 -17 60 -36 76 -42 15 -7 27 -16 27 -20 0 -4 7 -8 15 -8 8 0 15 -7 15
-16 0 -8 4 -13 8 -10 5 3 18 -4 30 -14 12 -11 26 -20 32 -20 6 0 8 -4 5 -10
-3 -5 0 -10 7 -10 21 0 152 -131 236 -235 4 -5 17 -25 27 -42 11 -18 23 -33
27 -33 4 0 7 -3 6 -7 -1 -5 15 -41 34 -80 20 -40 34 -73 31 -73 -3 0 0 -7 7
-15 7 -8 9 -15 5 -15 -4 0 -3 -6 2 -12 5 -7 9 -22 9 -33 -1 -11 3 -23 7 -26 4
-3 10 -30 12 -60 3 -30 6 -71 8 -91 2 -20 0 -42 -4 -49 -4 -7 -3 -22 1 -35 5
-12 6 -25 2 -28 -3 -4 -7 -14 -8 -24 -1 -9 -4 -30 -8 -47 -3 -16 -8 -39 -10
-51 -2 -12 -16 -54 -31 -95 -15 -41 -29 -83 -32 -94 -4 -11 -10 -23 -15 -26
-5 -3 -11 -12 -12 -20 -4 -20 -18 -53 -26 -59 -3 -3 -17 -27 -30 -53 -14 -26
-33 -57 -42 -67 -10 -11 -18 -22 -18 -25 0 -6 -46 -65 -100 -129 -76 -89 -255
-258 -264 -249 -3 4 -6 1 -6 -5 0 -5 -16 -20 -35 -32 -20 -12 -41 -27 -48 -34
-15 -15 -127 -89 -230 -150 -123 -74 -293 -160 -377 -191 -3 -1 -18 -7 -35
-14 -181 -73 -470 -169 -530 -176 -11 -1 -20 -3 -20 -4 0 -3 -2 -4 -160 -34
-130 -25 -204 -37 -260 -42 -16 -2 -57 -6 -90 -10 -109 -13 -148 -14 -325 -14
-245 1 -310 3 -310 11 0 3 -7 5 -16 4 -9 -1 -38 1 -63 5 -25 4 -64 10 -86 14
-46 7 -69 12 -105 20 -14 3 -34 7 -45 9 -73 14 -237 67 -313 102 -29 13 -59
24 -67 24 -8 0 -15 4 -15 8 0 5 -27 21 -60 37 -33 16 -60 32 -60 37 0 4 -7 8
-15 8 -8 0 -15 5 -15 10 0 6 -6 10 -13 10 -7 0 -28 12 -47 28 -56 45 -239 233
-257 263 -10 16 -21 29 -25 29 -4 0 -8 7 -8 15 0 8 -4 15 -10 15 -5 0 -10 7
-10 15 0 8 -4 15 -10 15 -5 0 -10 5 -10 10 0 6 -11 28 -24 49 -14 21 -22 42
-19 45 4 3 2 6 -4 6 -9 0 -36 51 -38 70 0 3 -6 14 -12 25 -12 23 -69 189 -77
226 -3 13 -13 53 -21 88 -9 35 -14 70 -11 77 3 7 1 16 -4 19 -6 4 -10 19 -10
36 0 16 -3 29 -7 29 -5 0 -8 23 -8 50 0 27 -2 50 -5 50 -3 0 -6 12 -6 28 -1
15 -4 42 -8 61 -4 21 -2 39 6 49 10 12 10 14 1 8 -9 -5 -13 1 -14 21 -1 15 -3
51 -4 78 -7 105 -14 274 -16 382 -1 79 -5 110 -13 106 -8 -5 -8 -2 0 8 13 15
13 57 1 76 -4 6 -3 14 2 18 9 5 7 42 -3 52 -3 3 -1 16 4 29 7 16 6 24 -1 24
-8 0 -8 4 0 14 9 11 9 16 0 21 -8 6 -7 10 2 16 11 7 11 9 1 9 -9 0 -10 5 -3
19 6 10 8 21 5 24 -11 10 -10 67 0 67 7 0 8 3 1 8 -12 8 -13 37 -3 48 4 4 4
12 0 18 -9 15 -10 116 -1 116 5 0 8 10 7 23 -2 33 13 87 24 87 5 0 6 4 3 10
-7 11 2 24 53 77 17 19 32 39 32 45 0 5 5 6 10 3 6 -4 17 -1 25 5 12 10 15 10
15 -1 0 -9 3 -10 8 -4 7 10 71 15 229 19 39 0 69 3 68 7 -2 3 22 6 53 7 31 1
71 4 87 7 67 11 258 22 525 30 113 4 206 8 207 8 1 2 49 1 353 -4z"/>
</g>
</svg>
