<svg
        viewBox="0 0 1600 100"
        width="1600"
        height="100"
        xmlns="http://www.w3.org/2000/svg"
        xmlns:link="http://www.w3.org/1999/xlink"
        version="1.1"
>
    <path
            d="M0 23L16.7 24C33.3 25 66.7 27 100 27C133.3 27 166.7 25 200 25.5C233.3 26 266.7 29 300 31.3C333.3 33.7 366.7 35.3 400 33.8C433.3 32.3 466.7 27.7 500 27.3C533.3 27 566.7 31 600 34.3C633.3 37.7 666.7 40.3 700 38.8C733.3 37.3 766.7 31.7 800 27.8C833.3 24 866.7 22 900 25.5C933.3 29 966.7 38 1000 38.3C1033.3 38.7 1066.7 30.3 1100 26.5C1133.3 22.7 1166.7 23.3 1200 22.8C1233.3 22.3 1266.7 20.7 1300 22.7C1333.3 24.7 1366.7 30.3 1400 31.7C1433.3 33 1466.7 30 1500 27C1533.3 24 1566.7 21 1583.3 19.5L1600 18L1600 101L1583.3 101C1566.7 101 1533.3 101 1500 101C1466.7 101 1433.3 101 1400 101C1366.7 101 1333.3 101 1300 101C1266.7 101 1233.3 101 1200 101C1166.7 101 1133.3 101 1100 101C1066.7 101 1033.3 101 1000 101C966.7 101 933.3 101 900 101C866.7 101 833.3 101 800 101C766.7 101 733.3 101 700 101C666.7 101 633.3 101 600 101C566.7 101 533.3 101 500 101C466.7 101 433.3 101 400 101C366.7 101 333.3 101 300 101C266.7 101 233.3 101 200 101C166.7 101 133.3 101 100 101C66.7 101 33.3 101 16.7 101L0 101Z"
            fill="#d95cd7"
    />
    <path
            d="M0 31L16.7 33C33.3 35 66.7 39 100 41.2C133.3 43.3 166.7 43.7 200 42.2C233.3 40.7 266.7 37.3 300 39C333.3 40.7 366.7 47.3 400 48C433.3 48.7 466.7 43.3 500 43C533.3 42.7 566.7 47.3 600 50.7C633.3 54 666.7 56 700 54C733.3 52 766.7 46 800 42.5C833.3 39 866.7 38 900 39.3C933.3 40.7 966.7 44.3 1000 48C1033.3 51.7 1066.7 55.3 1100 53.8C1133.3 52.3 1166.7 45.7 1200 42.8C1233.3 40 1266.7 41 1300 43.3C1333.3 45.7 1366.7 49.3 1400 51.7C1433.3 54 1466.7 55 1500 52.2C1533.3 49.3 1566.7 42.7 1583.3 39.3L1600 36L1600 101L1583.3 101C1566.7 101 1533.3 101 1500 101C1466.7 101 1433.3 101 1400 101C1366.7 101 1333.3 101 1300 101C1266.7 101 1233.3 101 1200 101C1166.7 101 1133.3 101 1100 101C1066.7 101 1033.3 101 1000 101C966.7 101 933.3 101 900 101C866.7 101 833.3 101 800 101C766.7 101 733.3 101 700 101C666.7 101 633.3 101 600 101C566.7 101 533.3 101 500 101C466.7 101 433.3 101 400 101C366.7 101 333.3 101 300 101C266.7 101 233.3 101 200 101C166.7 101 133.3 101 100 101C66.7 101 33.3 101 16.7 101L0 101Z"
            fill="#d03ece"
    />
    <path
            d="M0 51L16.7 52.5C33.3 54 66.7 57 100 59.7C133.3 62.3 166.7 64.7 200 66C233.3 67.3 266.7 67.7 300 65.5C333.3 63.3 366.7 58.7 400 56.7C433.3 54.7 466.7 55.3 500 57.3C533.3 59.3 566.7 62.7 600 63.7C633.3 64.7 666.7 63.3 700 61.2C733.3 59 766.7 56 800 54C833.3 52 866.7 51 900 52C933.3 53 966.7 56 1000 56C1033.3 56 1066.7 53 1100 53.7C1133.3 54.3 1166.7 58.7 1200 59C1233.3 59.3 1266.7 55.7 1300 54.2C1333.3 52.7 1366.7 53.3 1400 53.8C1433.3 54.3 1466.7 54.7 1500 55.5C1533.3 56.3 1566.7 57.7 1583.3 58.3L1600 59L1600 101L1583.3 101C1566.7 101 1533.3 101 1500 101C1466.7 101 1433.3 101 1400 101C1366.7 101 1333.3 101 1300 101C1266.7 101 1233.3 101 1200 101C1166.7 101 1133.3 101 1100 101C1066.7 101 1033.3 101 1000 101C966.7 101 933.3 101 900 101C866.7 101 833.3 101 800 101C766.7 101 733.3 101 700 101C666.7 101 633.3 101 600 101C566.7 101 533.3 101 500 101C466.7 101 433.3 101 400 101C366.7 101 333.3 101 300 101C266.7 101 233.3 101 200 101C166.7 101 133.3 101 100 101C66.7 101 33.3 101 16.7 101L0 101Z"
            fill="#c60ac4"
    />
    <path
            d="M0 61L16.7 63.7C33.3 66.3 66.7 71.7 100 73C133.3 74.3 166.7 71.7 200 69.8C233.3 68 266.7 67 300 65.8C333.3 64.7 366.7 63.3 400 63C433.3 62.7 466.7 63.3 500 64.2C533.3 65 566.7 66 600 65.7C633.3 65.3 666.7 63.7 700 62.5C733.3 61.3 766.7 60.7 800 63.7C833.3 66.7 866.7 73.3 900 74.8C933.3 76.3 966.7 72.7 1000 70.8C1033.3 69 1066.7 69 1100 69.2C1133.3 69.3 1166.7 69.7 1200 71.2C1233.3 72.7 1266.7 75.3 1300 73.8C1333.3 72.3 1366.7 66.7 1400 65.7C1433.3 64.7 1466.7 68.3 1500 68.5C1533.3 68.7 1566.7 65.3 1583.3 63.7L1600 62L1600 101L1583.3 101C1566.7 101 1533.3 101 1500 101C1466.7 101 1433.3 101 1400 101C1366.7 101 1333.3 101 1300 101C1266.7 101 1233.3 101 1200 101C1166.7 101 1133.3 101 1100 101C1066.7 101 1033.3 101 1000 101C966.7 101 933.3 101 900 101C866.7 101 833.3 101 800 101C766.7 101 733.3 101 700 101C666.7 101 633.3 101 600 101C566.7 101 533.3 101 500 101C466.7 101 433.3 101 400 101C366.7 101 333.3 101 300 101C266.7 101 233.3 101 200 101C166.7 101 133.3 101 100 101C66.7 101 33.3 101 16.7 101L0 101Z"
            fill="#ab08a9"
    />
    <path
            d="M0 76L16.7 77C33.3 78 66.7 80 100 81.8C133.3 83.7 166.7 85.3 200 85.7C233.3 86 266.7 85 300 85.2C333.3 85.3 366.7 86.7 400 86C433.3 85.3 466.7 82.7 500 80.3C533.3 78 566.7 76 600 76.8C633.3 77.7 666.7 81.3 700 83.7C733.3 86 766.7 87 800 85.5C833.3 84 866.7 80 900 77.8C933.3 75.7 966.7 75.3 1000 76C1033.3 76.7 1066.7 78.3 1100 80.8C1133.3 83.3 1166.7 86.7 1200 86.7C1233.3 86.7 1266.7 83.3 1300 80.8C1333.3 78.3 1366.7 76.7 1400 77.8C1433.3 79 1466.7 83 1500 84.7C1533.3 86.3 1566.7 85.7 1583.3 85.3L1600 85L1600 101L1583.3 101C1566.7 101 1533.3 101 1500 101C1466.7 101 1433.3 101 1400 101C1366.7 101 1333.3 101 1300 101C1266.7 101 1233.3 101 1200 101C1166.7 101 1133.3 101 1100 101C1066.7 101 1033.3 101 1000 101C966.7 101 933.3 101 900 101C866.7 101 833.3 101 800 101C766.7 101 733.3 101 700 101C666.7 101 633.3 101 600 101C566.7 101 533.3 101 500 101C466.7 101 433.3 101 400 101C366.7 101 333.3 101 300 101C266.7 101 233.3 101 200 101C166.7 101 133.3 101 100 101C66.7 101 33.3 101 16.7 101L0 101Z"
            fill="#91078f"
    />
</svg>
